<?xml version="1.0" encoding="UTF-8" standalone="no"?>
<!DOCTYPE svg PUBLIC "-//W3C//DTD SVG 1.1//EN" "http://www.w3.org/Graphics/SVG/1.1/DTD/svg11.dtd">
<svg version="1.1" xmlns="http://www.w3.org/2000/svg" xmlns:xlink="http://www.w3.org/1999/xlink" preserveAspectRatio="xMidYMid meet" viewBox="0 0 640 640" width="640" height="640"><defs><path d="M339.64 244.18L349.3 244.32L358.85 244.5L368.27 244.74L377.56 245.02L386.71 245.36L395.71 245.74L404.55 246.16L413.24 246.64L421.75 247.15L430.08 247.71L438.23 248.32L446.19 248.96L453.94 249.64L461.48 250.37L468.81 251.13L475.91 251.92L482.78 252.76L489.41 253.62L495.79 254.53L501.92 255.46L507.78 256.43L513.37 257.42L518.68 258.45L523.71 259.5L528.44 260.59L532.87 261.69L536.98 262.83L540.79 263.99L544.26 265.17L547.4 266.37L550.21 267.59L552.66 268.84L554.76 270.1L556.49 271.38L557.85 272.68L558.83 274L559.43 275.32L559.63 276.67L559.43 278.01L558.83 279.34L557.85 280.65L556.49 281.95L554.76 283.23L552.66 284.5L550.21 285.74L547.4 286.96L544.26 288.17L540.79 289.35L536.98 290.51L532.87 291.64L528.44 292.75L523.71 293.83L518.68 294.88L513.37 295.91L507.78 296.91L501.92 297.87L495.79 298.81L489.41 299.71L482.78 300.58L475.91 301.41L468.81 302.21L461.48 302.97L453.94 303.69L446.19 304.37L438.23 305.02L430.08 305.62L421.75 306.18L413.24 306.7L404.55 307.17L395.71 307.6L386.71 307.98L377.56 308.31L368.27 308.6L358.85 308.83L349.3 309.02L339.64 309.15L329.87 309.23L320 309.26L310.13 309.23L300.36 309.15L290.7 309.02L281.15 308.83L271.73 308.6L262.44 308.31L253.29 307.98L244.29 307.6L235.45 307.17L226.76 306.7L218.25 306.18L209.92 305.62L201.77 305.02L193.81 304.37L186.06 303.69L178.52 302.97L171.19 302.21L164.09 301.41L157.22 300.58L150.59 299.71L144.21 298.81L138.08 297.87L132.22 296.91L126.63 295.91L121.32 294.88L116.29 293.83L111.56 292.75L107.13 291.64L103.02 290.51L99.21 289.35L95.74 288.17L92.6 286.96L89.79 285.74L87.34 284.5L85.24 283.23L83.51 281.95L82.15 280.65L81.17 279.34L80.57 278.01L80.37 276.67L80.57 275.32L81.17 274L82.15 272.68L83.51 271.38L85.24 270.1L87.34 268.84L89.79 267.59L92.6 266.37L95.74 265.17L99.21 263.99L103.02 262.83L107.13 261.69L111.56 260.59L116.29 259.5L121.32 258.45L126.63 257.42L132.22 256.43L138.08 255.46L144.21 254.53L150.59 253.62L157.22 252.76L164.09 251.92L171.19 251.13L178.52 250.37L186.06 249.64L193.81 248.96L201.77 248.32L209.92 247.71L218.25 247.15L226.76 246.64L235.45 246.16L244.29 245.74L253.29 245.36L262.44 245.02L271.73 244.74L281.15 244.5L290.7 244.32L300.36 244.18L310.13 244.1L320 244.07L329.87 244.1L339.64 244.18ZM151 281.96L152.01 282.3L153.02 282.63L154.04 282.94L155.06 283.25L156.08 283.54L157.11 283.82L158.15 284.09L159.18 284.35L160.23 284.6L161.27 284.84L162.32 285.06L163.38 285.28L164.44 285.48L165.5 285.67L166.57 285.85L167.64 286.02L168.72 286.18L169.8 286.33L170.89 286.46L171.98 286.59L173.07 286.7L174.17 286.8L175.27 286.89L176.38 286.97L177.49 287.04L178.6 287.09L179.72 287.14L180.85 287.17L181.98 287.19L183.11 287.2L184.25 287.2L185.39 287.19L186.54 287.17L187.69 287.13L188.84 287.09L190 287.03L191.7 286.94L193.31 286.86L194.84 286.79L196.29 286.72L197.66 286.65L198.97 286.59L200.21 286.53L201.39 286.46L202.52 286.39L203.59 286.32L204.61 286.24L205.59 286.16L206.54 286.06L207.44 285.95L208.32 285.83L209.17 285.7L209.99 285.55L210.8 285.38L211.6 285.19L212.39 284.98L213.17 284.75L213.95 284.49L214.74 284.21L215.53 283.9L216.33 283.56L217.15 283.19L218 282.78L218.87 282.34L219.76 281.87L220.69 281.36L221.66 280.81L222.67 280.21L223.73 279.58L224.84 278.9L226.01 278.17L227.23 277.4L228.52 276.58L229.38 276.02L230.21 275.48L231.01 274.95L231.77 274.44L232.5 273.95L233.2 273.47L233.86 273L234.49 272.55L235.09 272.11L235.65 271.69L236.18 271.29L236.67 270.9L237.14 270.53L237.56 270.17L237.96 269.82L238.32 269.5L238.65 269.18L238.94 268.89L239.2 268.6L239.43 268.34L239.62 268.08L239.78 267.85L239.91 267.63L240 267.42L240.06 267.23L240.08 267.05L240.07 266.89L240.03 266.75L239.96 266.62L239.85 266.5L239.71 266.4L239.53 266.32L239.32 266.25L239.08 266.2L238.8 266.16L238.49 266.14L238.15 266.13L150 281.61L151 281.96ZM269.15 281.96L270.16 282.3L271.17 282.63L272.19 282.94L273.21 283.25L274.23 283.54L275.26 283.82L276.29 284.09L277.33 284.35L278.37 284.6L279.42 284.84L280.47 285.06L281.53 285.28L282.59 285.48L283.65 285.67L284.72 285.85L285.79 286.02L286.87 286.18L287.95 286.33L289.03 286.46L290.12 286.59L291.22 286.7L292.32 286.8L293.42 286.89L294.53 286.97L295.64 287.04L296.75 287.09L297.87 287.14L299 287.17L300.13 287.19L301.26 287.2L302.4 287.2L303.54 287.19L304.68 287.17L305.83 287.13L306.99 287.09L308.15 287.03L309.85 286.94L311.46 286.86L312.98 286.79L314.43 286.72L315.81 286.65L317.12 286.59L318.36 286.53L319.54 286.46L320.66 286.39L321.74 286.32L322.76 286.24L323.74 286.16L324.68 286.06L325.59 285.95L326.47 285.83L327.32 285.7L328.14 285.55L328.95 285.38L329.75 285.19L330.54 284.98L331.32 284.75L332.1 284.49L332.88 284.21L333.68 283.9L334.48 283.56L335.3 283.19L336.15 282.78L337.01 282.34L337.91 281.87L338.84 281.36L339.81 280.81L340.82 280.21L341.88 279.58L342.99 278.9L344.15 278.17L345.38 277.4L346.67 276.58L347.53 276.02L348.36 275.48L349.16 274.95L349.92 274.44L350.65 273.95L351.35 273.47L352.01 273L352.64 272.55L353.24 272.11L353.8 271.69L354.33 271.29L354.82 270.9L355.28 270.53L355.71 270.17L356.11 269.82L356.47 269.5L356.79 269.18L357.09 268.89L357.35 268.6L357.57 268.34L357.77 268.08L357.93 267.85L358.05 267.63L358.15 267.42L358.21 267.23L358.23 267.05L358.22 266.89L358.18 266.75L358.11 266.62L358 266.5L357.85 266.4L357.68 266.32L357.47 266.25L357.23 266.2L356.95 266.16L356.64 266.14L356.3 266.13L268.15 281.61L269.15 281.96ZM381.37 281.96L382.38 282.3L383.39 282.63L384.41 282.94L385.43 283.25L386.45 283.54L387.48 283.82L388.52 284.09L389.55 284.35L390.6 284.6L391.64 284.84L392.69 285.06L393.75 285.28L394.81 285.48L395.87 285.67L396.94 285.85L398.01 286.02L399.09 286.18L400.17 286.33L401.26 286.46L402.35 286.59L403.44 286.7L404.54 286.8L405.64 286.89L406.75 286.97L407.86 287.04L408.98 287.09L410.1 287.14L411.22 287.17L412.35 287.19L413.48 287.2L414.62 287.2L415.76 287.19L416.91 287.17L418.06 287.13L419.21 287.09L420.37 287.03L422.07 286.94L423.68 286.86L425.21 286.79L426.66 286.72L428.03 286.65L429.34 286.59L430.58 286.53L431.76 286.46L432.89 286.39L433.96 286.32L434.98 286.24L435.96 286.16L436.91 286.06L437.81 285.95L438.69 285.83L439.54 285.7L440.37 285.55L441.17 285.38L441.97 285.19L442.76 284.98L443.54 284.75L444.32 284.49L445.11 284.21L445.9 283.9L446.7 283.56L447.53 283.19L448.37 282.78L449.24 282.34L450.13 281.87L451.06 281.36L452.03 280.81L453.04 280.21L454.1 279.58L455.21 278.9L456.38 278.17L457.6 277.4L458.89 276.58L459.75 276.02L460.58 275.48L461.38 274.95L462.14 274.44L462.87 273.95L463.57 273.47L464.23 273L464.86 272.55L465.46 272.11L466.02 271.69L466.55 271.29L467.04 270.9L467.51 270.53L467.93 270.17L468.33 269.82L468.69 269.5L469.02 269.18L469.31 268.89L469.57 268.6L469.8 268.34L469.99 268.08L470.15 267.85L470.28 267.63L470.37 267.42L470.43 267.23L470.45 267.05L470.44 266.89L470.4 266.75L470.33 266.62L470.22 266.5L470.08 266.4L469.9 266.32L469.69 266.25L469.45 266.2L469.17 266.16L468.86 266.14L468.52 266.13L380.37 281.61L381.37 281.96Z" id="aoyDVRSV"></path></defs><g><g><g><use xlink:href="#aoyDVRSV" opacity="1" fill="#05bf85" fill-opacity="1"></use></g></g></g></svg>