<?xml version="1.0" encoding="UTF-8" standalone="no"?>
<!DOCTYPE svg PUBLIC "-//W3C//DTD SVG 1.1//EN" "http://www.w3.org/Graphics/SVG/1.1/DTD/svg11.dtd">
<svg version="1.1" xmlns="http://www.w3.org/2000/svg" xmlns:xlink="http://www.w3.org/1999/xlink" preserveAspectRatio="xMidYMid meet" viewBox="0 0 640 640" width="640" height="640"><defs><path d="M488.35 106.42L489.44 107.22L490.25 108.31L490.77 109.67L491.01 111.3L490.96 113.18L490.64 115.31L490.05 117.69L489.2 120.3L488.08 123.15L486.71 126.22L485.09 129.51L483.22 133.02L481.11 136.74L478.76 140.65L476.18 144.76L473.37 149.06L470.34 153.54L467.09 158.2L463.63 163.03L459.96 168.02L456.08 173.17L452.01 178.47L447.74 183.92L443.28 189.5L438.64 195.22L433.82 201.06L428.82 207.03L423.65 213.11L418.31 219.3L412.82 225.59L407.16 231.97L401.36 238.45L395.4 245L389.31 251.64L383.08 258.34L376.71 265.11L370.21 271.94L363.6 278.82L356.86 285.75L350.01 292.71L343.05 299.71L336.05 306.67L329.08 313.53L322.16 320.26L315.28 326.88L308.45 333.38L301.68 339.74L294.97 345.98L288.34 352.07L281.78 358.02L275.31 363.83L268.92 369.48L262.63 374.98L256.44 380.32L250.36 385.49L244.4 390.48L238.55 395.31L232.83 399.95L227.25 404.41L221.8 408.68L216.5 412.75L211.35 416.63L206.36 420.3L201.53 423.76L196.87 427.01L192.39 430.04L188.09 432.84L183.98 435.43L180.07 437.77L176.35 439.88L172.85 441.75L169.55 443.38L166.48 444.75L163.63 445.86L161.02 446.72L158.64 447.31L156.51 447.63L154.63 447.67L153.01 447.44L151.65 446.92L150.56 446.11L149.75 445.02L149.23 443.66L148.99 442.04L149.04 440.15L149.36 438.02L149.95 435.65L150.8 433.03L151.92 430.18L153.29 427.11L154.91 423.82L156.78 420.31L158.89 416.6L161.24 412.68L163.82 408.57L166.63 404.27L169.66 399.79L172.91 395.13L176.37 390.31L180.04 385.31L183.92 380.16L187.99 374.86L192.26 369.42L196.72 363.83L201.36 358.11L206.18 352.27L211.18 346.3L216.35 340.22L221.69 334.04L227.18 327.75L232.84 321.36L238.64 314.89L244.6 308.33L250.69 301.69L256.92 294.99L263.29 288.22L269.79 281.39L276.4 274.51L283.14 267.59L289.99 260.62L296.95 253.62L303.95 246.66L310.92 239.81L317.84 233.07L324.72 226.45L331.55 219.96L338.32 213.59L345.03 207.36L351.66 201.26L358.22 195.31L364.69 189.5L371.08 183.85L377.37 178.35L383.56 173.02L389.64 167.85L395.6 162.85L401.45 158.03L407.17 153.38L412.75 148.92L418.2 144.66L423.5 140.58L428.65 136.71L433.64 133.04L438.47 129.58L443.13 126.33L447.61 123.3L451.91 120.49L456.02 117.91L459.93 115.56L463.65 113.45L467.15 111.58L470.45 109.96L473.52 108.59L476.37 107.47L478.98 106.62L481.36 106.03L483.49 105.71L485.37 105.66L486.99 105.9L488.35 106.42ZM255.78 326.25L255.59 326.35L255.38 326.48L255.15 326.65L254.92 326.86L254.67 327.09L203.29 400.37L204.24 399.91L205.2 399.44L206.14 398.95L207.09 398.46L208.02 397.95L208.96 397.43L209.88 396.91L210.8 396.37L211.72 395.82L212.63 395.25L213.54 394.68L214.44 394.1L215.34 393.5L216.23 392.9L217.12 392.28L218.01 391.65L218.88 391.02L219.76 390.37L220.62 389.7L221.49 389.03L222.35 388.35L223.2 387.66L224.05 386.95L224.89 386.23L225.73 385.51L226.56 384.77L227.39 384.02L228.21 383.26L229.03 382.49L229.85 381.71L230.65 380.91L231.46 380.11L232.26 379.29L233.05 378.46L233.84 377.63L234.62 376.78L235.4 375.92L236.54 374.66L237.62 373.46L238.65 372.33L239.63 371.25L240.55 370.23L241.43 369.26L242.27 368.34L243.06 367.46L243.8 366.62L244.51 365.81L245.18 365.03L245.81 364.27L246.41 363.54L246.98 362.82L247.51 362.12L248.02 361.42L248.49 360.73L248.95 360.04L249.38 359.34L249.79 358.64L250.17 357.92L250.55 357.19L250.9 356.43L251.24 355.65L251.57 354.84L251.89 354L252.2 353.12L252.5 352.19L252.8 351.22L253.1 350.2L253.39 349.13L253.69 347.99L253.99 346.8L254.29 345.53L254.6 344.2L254.92 342.78L255.25 341.29L255.47 340.29L255.67 339.32L255.86 338.38L256.04 337.48L256.21 336.61L256.36 335.78L256.5 334.98L256.63 334.22L256.74 333.49L256.84 332.8L256.93 332.14L257 331.51L257.06 330.92L257.11 330.36L257.15 329.84L257.17 329.35L257.18 328.9L257.18 328.48L257.16 328.1L257.14 327.75L257.09 327.43L257.04 327.15L256.97 326.91L256.89 326.7L256.8 326.52L256.69 326.38L256.57 326.27L256.44 326.2L256.3 326.16L256.14 326.16L255.97 326.19L255.78 326.25ZM339.33 242.71L339.13 242.81L338.92 242.94L338.7 243.11L338.46 243.31L338.21 243.55L286.83 316.83L287.79 316.37L288.74 315.89L289.69 315.41L290.63 314.91L291.57 314.41L292.5 313.89L293.43 313.36L294.35 312.82L295.27 312.27L296.18 311.71L297.09 311.14L297.99 310.56L298.89 309.96L299.78 309.36L300.67 308.74L301.55 308.11L302.43 307.47L303.3 306.82L304.17 306.16L305.03 305.49L305.89 304.81L306.74 304.11L307.59 303.41L308.43 302.69L309.27 301.96L310.1 301.23L310.93 300.48L311.76 299.72L312.58 298.94L313.39 298.16L314.2 297.37L315 296.56L315.8 295.75L316.59 294.92L317.38 294.08L318.17 293.23L318.95 292.37L320.08 291.11L321.17 289.92L322.19 288.78L323.17 287.71L324.1 286.69L324.98 285.72L325.81 284.8L326.6 283.92L327.35 283.07L328.06 282.27L328.72 281.49L329.36 280.73L329.96 280L330.52 279.28L331.05 278.58L331.56 277.88L332.04 277.19L332.49 276.5L332.92 275.8L333.33 275.1L333.72 274.38L334.09 273.65L334.44 272.89L334.78 272.11L335.11 271.3L335.43 270.46L335.74 269.57L336.05 268.65L336.34 267.68L336.64 266.66L336.94 265.59L337.23 264.45L337.53 263.25L337.84 261.99L338.15 260.65L338.47 259.24L338.79 257.75L339.01 256.74L339.22 255.77L339.41 254.84L339.59 253.94L339.75 253.07L339.9 252.24L340.04 251.44L340.17 250.68L340.28 249.95L340.38 249.25L340.47 248.59L340.55 247.97L340.61 247.38L340.66 246.82L340.69 246.3L340.72 245.81L340.73 245.36L340.72 244.94L340.71 244.56L340.68 244.21L340.64 243.89L340.58 243.61L340.52 243.37L340.43 243.15L340.34 242.98L340.24 242.84L340.12 242.73L339.98 242.66L339.84 242.62L339.68 242.61L339.51 242.64L339.33 242.71ZM418.68 163.35L418.48 163.45L418.27 163.59L418.05 163.76L417.82 163.96L417.57 164.2L366.18 237.47L367.14 237.01L368.09 236.54L369.04 236.06L369.98 235.56L370.92 235.05L371.85 234.54L372.78 234.01L373.7 233.47L374.62 232.92L375.53 232.36L376.44 231.79L377.34 231.2L378.24 230.61L379.13 230L380.02 229.39L380.9 228.76L381.78 228.12L382.65 227.47L383.52 226.81L384.38 226.14L385.24 225.45L386.09 224.76L386.94 224.05L387.79 223.34L388.62 222.61L389.46 221.87L390.29 221.12L391.11 220.36L391.93 219.59L392.74 218.81L393.55 218.02L394.36 217.21L395.15 216.4L395.95 215.57L396.74 214.73L397.52 213.88L398.3 213.02L399.44 211.76L400.52 210.56L401.55 209.43L402.52 208.36L403.45 207.34L404.33 206.37L405.16 205.45L405.95 204.56L406.7 203.72L407.41 202.91L408.08 202.13L408.71 201.38L409.31 200.64L409.87 199.93L410.41 199.22L410.91 198.53L411.39 197.84L411.84 197.14L412.27 196.45L412.68 195.74L413.07 195.03L413.44 194.29L413.8 193.54L414.14 192.76L414.47 191.95L414.78 191.1L415.09 190.22L415.4 189.3L415.7 188.33L415.99 187.31L416.29 186.23L416.59 185.1L416.88 183.9L417.19 182.64L417.5 181.3L417.82 179.89L418.15 178.4L418.36 177.39L418.57 176.42L418.76 175.48L418.94 174.58L419.1 173.72L419.26 172.88L419.4 172.09L419.52 171.32L419.64 170.59L419.74 169.9L419.82 169.24L419.9 168.61L419.96 168.02L420.01 167.47L420.05 166.94L420.07 166.46L420.08 166L420.08 165.59L420.06 165.2L420.03 164.85L419.99 164.54L419.94 164.26L419.87 164.01L419.79 163.8L419.69 163.62L419.59 163.48L419.47 163.38L419.34 163.3L419.19 163.26L419.03 163.26L418.86 163.29L418.68 163.35Z" id="aETEKKp04"></path><path d="M350.01 260.62L356.86 267.59L363.6 274.51L370.21 281.39L376.71 288.22L383.08 294.99L389.31 301.69L395.4 308.33L401.36 314.89L407.16 321.36L412.82 327.75L418.31 334.04L423.65 340.22L428.82 346.3L433.82 352.27L438.64 358.11L443.28 363.83L447.74 369.42L452.01 374.86L456.08 380.16L459.96 385.31L463.63 390.31L467.09 395.13L470.34 399.79L473.37 404.27L476.18 408.57L478.76 412.68L481.11 416.6L483.22 420.31L485.09 423.82L486.71 427.11L488.08 430.18L489.2 433.03L490.05 435.65L490.64 438.02L490.96 440.15L491.01 442.04L490.77 443.66L490.25 445.02L489.44 446.11L488.35 446.92L486.99 447.44L485.37 447.67L483.49 447.63L481.36 447.31L478.98 446.72L476.37 445.86L473.52 444.75L470.45 443.38L467.15 441.75L463.65 439.88L459.93 437.77L456.02 435.43L451.91 432.84L447.61 430.04L443.13 427.01L438.47 423.76L433.64 420.3L428.65 416.63L423.5 412.75L418.2 408.68L412.75 404.41L407.17 399.95L401.45 395.31L395.6 390.48L389.64 385.49L383.56 380.32L377.37 374.98L371.08 369.48L364.69 363.83L358.22 358.02L351.66 352.07L345.03 345.98L338.32 339.74L331.55 333.38L324.72 326.88L317.84 320.26L310.92 313.53L306.57 309.25L324.85 296.42L325 296.56L325.8 297.37L326.61 298.16L327.42 298.94L328.24 299.72L329.07 300.48L329.9 301.23L330.73 301.96L331.57 302.69L332.41 303.41L333.26 304.11L334.11 304.81L334.97 305.49L335.83 306.16L336.7 306.82L337.57 307.47L338.45 308.11L339.33 308.74L340.22 309.36L341.11 309.96L342.01 310.56L342.91 311.14L343.82 311.71L344.73 312.27L345.65 312.82L346.57 313.36L347.5 313.89L348.43 314.41L349.37 314.91L350.31 315.41L351.26 315.89L352.21 316.37L353.17 316.83L333.59 288.9L334.01 288.3L334.44 287.66L334.85 287L335.26 286.31L335.65 285.61L336.03 284.89L336.4 284.15L336.76 283.38L337.1 282.6L337.44 281.79L337.76 280.97L338.07 280.12L338.37 279.26L338.65 278.37L338.93 277.46L339.19 276.54L339.45 275.59L339.69 274.62L339.91 273.63L340.13 272.63L340.34 271.6L340.53 270.55L340.71 269.48L340.88 268.39L341.04 267.28L341.19 266.15L341.32 265.02L341.45 263.9L341.58 262.81L341.69 261.73L341.8 260.67L341.9 259.63L342 258.61L342.09 257.61L342.17 256.62L342.24 255.66L342.31 254.71L342.37 253.78L342.41 252.99L343.05 253.62L350.01 260.62ZM383.56 326.2L383.43 326.27L383.31 326.38L383.2 326.52L383.11 326.7L383.03 326.91L382.96 327.15L382.91 327.43L382.86 327.75L382.84 328.1L382.82 328.48L382.82 328.9L382.83 329.35L382.85 329.84L382.89 330.36L382.94 330.92L383 331.51L383.07 332.14L383.16 332.8L383.26 333.49L383.37 334.22L383.5 334.98L383.64 335.78L383.79 336.61L383.96 337.48L384.14 338.38L384.33 339.32L384.53 340.29L384.75 341.29L385.08 342.78L385.4 344.2L385.71 345.53L386.01 346.8L386.31 347.99L386.61 349.13L386.9 350.2L387.2 351.22L387.5 352.19L387.8 353.12L388.11 354L388.43 354.84L388.76 355.65L389.1 356.43L389.45 357.19L389.83 357.92L390.21 358.64L390.62 359.34L391.05 360.04L391.51 360.73L391.98 361.42L392.49 362.12L393.02 362.82L393.59 363.54L394.19 364.27L394.82 365.03L395.49 365.81L396.2 366.62L396.94 367.46L397.73 368.34L398.57 369.26L399.45 370.23L400.37 371.25L401.35 372.33L402.38 373.46L403.46 374.66L404.6 375.92L405.38 376.78L406.16 377.63L406.95 378.46L407.74 379.29L408.54 380.11L409.35 380.91L410.15 381.71L410.97 382.49L411.79 383.26L412.61 384.02L413.44 384.77L414.27 385.51L415.11 386.23L415.95 386.95L416.8 387.66L417.65 388.35L418.51 389.03L419.38 389.7L420.24 390.37L421.12 391.02L421.99 391.65L422.88 392.28L423.77 392.9L424.66 393.5L425.56 394.1L426.46 394.68L427.37 395.25L428.28 395.82L429.2 396.37L430.12 396.91L431.04 397.43L431.98 397.95L432.91 398.46L433.86 398.95L434.8 399.44L435.76 399.91L436.71 400.37L385.33 327.09L385.08 326.86L384.85 326.65L384.62 326.48L384.41 326.35L384.22 326.25L384.03 326.19L383.86 326.16L383.7 326.16L383.56 326.2ZM158.64 106.03L161.02 106.62L163.63 107.47L166.48 108.59L169.55 109.96L172.85 111.58L176.35 113.45L180.07 115.56L183.98 117.91L188.09 120.49L192.39 123.3L196.87 126.33L201.53 129.58L206.36 133.04L211.35 136.71L216.5 140.58L221.8 144.66L227.25 148.92L232.83 153.38L238.55 158.03L244.4 162.85L250.36 167.85L256.44 173.02L262.63 178.35L268.92 183.85L275.31 189.5L281.78 195.31L288.34 201.26L294.97 207.36L301.68 213.59L308.45 219.96L315.28 226.45L322.16 233.07L329.08 239.81L333.55 244.2L316.41 264.41L301.79 243.55L301.54 243.31L301.3 243.11L301.08 242.94L300.87 242.81L300.67 242.71L300.49 242.64L300.32 242.61L300.16 242.62L300.02 242.66L299.88 242.73L299.76 242.84L299.66 242.98L299.57 243.15L299.48 243.37L299.42 243.61L299.36 243.89L299.32 244.21L299.29 244.56L299.28 244.94L299.27 245.36L299.28 245.81L299.31 246.3L299.34 246.82L299.39 247.38L299.45 247.97L299.53 248.59L299.62 249.25L299.72 249.95L299.83 250.68L299.96 251.44L300.1 252.24L300.25 253.07L300.41 253.94L300.59 254.84L300.78 255.77L300.99 256.74L301.21 257.75L301.53 259.24L301.85 260.65L302.16 261.99L302.47 263.25L302.77 264.45L303.06 265.59L303.36 266.66L303.66 267.68L303.95 268.65L304.26 269.57L304.57 270.46L304.89 271.3L305.22 272.11L305.56 272.89L305.91 273.65L306.28 274.38L306.67 275.1L306.95 275.57L291.3 294.03L289.99 292.71L283.14 285.75L276.4 278.82L269.79 271.94L263.29 265.11L256.92 258.34L250.69 251.64L244.6 245L238.64 238.45L232.84 231.97L227.18 225.59L221.69 219.3L216.35 213.11L211.18 207.03L206.18 201.06L201.36 195.22L196.72 189.5L192.26 183.92L187.99 178.47L183.92 173.17L180.04 168.02L176.37 163.03L172.91 158.2L169.66 153.54L166.63 149.06L163.82 144.76L161.24 140.65L158.89 136.74L156.78 133.02L154.91 129.51L153.29 126.22L151.92 123.15L150.8 120.3L149.95 117.69L149.36 115.31L149.04 113.18L148.99 111.3L149.23 109.67L149.75 108.31L150.56 107.22L151.65 106.42L153.01 105.9L154.63 105.66L156.51 105.71L158.64 106.03ZM220.66 163.3L220.53 163.38L220.41 163.48L220.31 163.62L220.21 163.8L220.13 164.01L220.06 164.26L220.01 164.54L219.97 164.85L219.94 165.2L219.92 165.59L219.92 166L219.93 166.46L219.95 166.94L219.99 167.47L220.04 168.02L220.1 168.61L220.18 169.24L220.26 169.9L220.36 170.59L220.48 171.32L220.6 172.09L220.74 172.88L220.9 173.72L221.06 174.58L221.24 175.48L221.43 176.42L221.64 177.39L221.85 178.4L222.18 179.89L222.5 181.3L222.81 182.64L223.12 183.9L223.41 185.1L223.71 186.23L224.01 187.31L224.3 188.33L224.6 189.3L224.91 190.22L225.22 191.1L225.53 191.95L225.86 192.76L226.2 193.54L226.56 194.29L226.93 195.03L227.32 195.74L227.73 196.45L228.16 197.14L228.61 197.84L229.09 198.53L229.59 199.22L230.13 199.93L230.69 200.64L231.29 201.38L231.92 202.13L232.59 202.91L233.3 203.72L234.05 204.56L234.84 205.45L235.67 206.37L236.55 207.34L237.48 208.36L238.45 209.43L239.48 210.56L240.56 211.76L241.7 213.02L242.48 213.88L243.26 214.73L244.05 215.57L244.85 216.4L245.64 217.21L246.45 218.02L247.26 218.81L248.07 219.59L248.89 220.36L249.71 221.12L250.54 221.87L251.38 222.61L252.21 223.34L253.06 224.05L253.91 224.76L254.76 225.45L255.62 226.14L256.48 226.81L257.35 227.47L258.22 228.12L259.1 228.76L259.98 229.39L260.87 230L261.76 230.61L262.66 231.2L263.56 231.79L264.47 232.36L265.38 232.92L266.3 233.47L267.22 234.01L268.15 234.54L269.08 235.05L270.02 235.56L270.96 236.06L271.91 236.54L272.86 237.01L273.82 237.47L222.43 164.2L222.18 163.96L221.95 163.76L221.73 163.59L221.52 163.45L221.32 163.35L221.14 163.29L220.97 163.26L220.81 163.26L220.66 163.3Z" id="a1KyyJ0IfN"></path></defs><g><g><g><use xlink:href="#aETEKKp04" opacity="1" fill="#05bf85" fill-opacity="1"></use></g><g><use xlink:href="#a1KyyJ0IfN" opacity="1" fill="#05bf85" fill-opacity="1"></use></g></g></g></svg>