<?xml version="1.0" encoding="UTF-8" standalone="no"?>
<!DOCTYPE svg PUBLIC "-//W3C//DTD SVG 1.1//EN" "http://www.w3.org/Graphics/SVG/1.1/DTD/svg11.dtd">
<svg version="1.1" xmlns="http://www.w3.org/2000/svg" xmlns:xlink="http://www.w3.org/1999/xlink" preserveAspectRatio="xMidYMid meet" viewBox="0 0 640 640" width="640" height="640"><defs><path d="M630 311.85C630 473.95 498.4 605.56 336.3 605.56C174.2 605.56 42.59 473.95 42.59 311.85C42.59 149.75 174.2 18.15 336.3 18.15C498.4 18.15 630 149.75 630 311.85Z" id="c303jwTG9J"></path><path d="M547.28 144.51L547.84 144.92L548.25 145.48L548.51 146.17L548.63 147L548.61 147.95L548.45 149.04L548.15 150.25L547.71 151.58L547.14 153.03L546.45 154.59L545.62 156.27L544.67 158.05L543.59 159.94L542.4 161.93L541.09 164.02L539.66 166.21L538.12 168.49L536.46 170.86L534.7 173.32L532.83 175.86L530.86 178.48L528.79 181.18L526.62 183.95L524.35 186.79L521.99 189.7L519.53 192.67L516.99 195.71L514.36 198.8L511.64 201.95L508.85 205.15L505.97 208.4L503.01 211.7L499.98 215.03L496.88 218.41L493.71 221.82L490.47 225.27L487.17 228.74L484.85 231.15L487.17 233.55L490.47 237.02L493.71 240.47L496.88 243.88L499.98 247.26L503.01 250.59L505.97 253.89L508.85 257.14L511.64 260.34L514.36 263.49L516.99 266.58L519.53 269.61L521.99 272.59L524.35 275.5L526.62 278.34L528.79 281.11L530.86 283.81L532.83 286.43L534.7 288.97L536.46 291.43L538.12 293.8L539.66 296.08L541.09 298.27L542.4 300.36L543.59 302.35L544.67 304.24L545.62 306.02L546.45 307.7L547.14 309.26L547.71 310.71L548.15 312.04L548.45 313.25L548.61 314.34L548.63 315.29L548.51 316.12L548.25 316.81L547.84 317.37L547.28 317.78L546.59 318.04L545.76 318.16L544.81 318.14L543.72 317.98L542.51 317.68L541.18 317.24L539.73 316.67L538.17 315.97L536.49 315.15L534.71 314.2L532.82 313.12L530.83 311.93L528.74 310.62L526.55 309.19L524.27 307.65L521.9 305.99L519.44 304.23L516.9 302.36L514.28 300.39L511.58 298.32L508.81 296.15L505.97 293.88L503.06 291.52L500.09 289.06L497.05 286.52L493.96 283.89L490.81 281.17L487.61 278.37L484.36 275.5L481.06 272.54L477.73 269.51L474.35 266.41L470.94 263.24L467.49 260L464.02 256.7L461.62 254.38L459.21 256.7L455.74 260L452.29 263.24L448.88 266.41L445.5 269.51L442.17 272.54L438.87 275.5L435.62 278.37L432.42 281.17L429.27 283.89L426.18 286.52L423.15 289.06L420.17 291.52L417.26 293.88L414.42 296.15L411.65 298.32L408.95 300.39L406.33 302.36L403.79 304.23L401.33 305.99L398.96 307.65L396.68 309.19L394.49 310.62L392.4 311.93L390.41 313.12L388.52 314.2L386.74 315.15L385.06 315.97L383.5 316.67L382.05 317.24L380.72 317.68L379.51 317.98L378.42 318.14L377.47 318.16L376.64 318.04L375.95 317.78L375.39 317.37L374.98 316.81L374.72 316.12L374.6 315.29L374.62 314.34L374.78 313.25L375.08 312.04L375.52 310.71L376.09 309.26L376.79 307.7L377.61 306.02L378.56 304.24L379.64 302.35L380.83 300.36L382.14 298.27L383.57 296.08L385.11 293.8L386.77 291.43L388.53 288.97L390.4 286.43L392.37 283.81L394.44 281.11L396.61 278.34L398.88 275.5L401.24 272.59L403.7 269.61L406.24 266.58L408.87 263.49L411.59 260.34L414.39 257.14L417.26 253.89L420.22 250.59L423.25 247.26L426.35 243.88L429.52 240.47L432.76 237.02L436.06 233.55L438.38 231.15L436.06 228.74L432.76 225.27L429.52 221.82L426.35 218.41L423.25 215.03L420.22 211.7L417.26 208.4L414.39 205.15L411.59 201.95L408.87 198.8L406.24 195.71L403.7 192.67L401.24 189.7L398.88 186.79L396.61 183.95L394.44 181.18L392.37 178.48L390.4 175.86L388.53 173.32L386.77 170.86L385.11 168.49L383.57 166.21L382.14 164.02L380.83 161.93L379.64 159.94L378.56 158.05L377.61 156.27L376.79 154.59L376.09 153.03L375.52 151.58L375.08 150.25L374.78 149.04L374.62 147.95L374.6 147L374.72 146.17L374.98 145.48L375.39 144.92L375.95 144.51L376.64 144.25L377.47 144.13L378.42 144.15L379.51 144.31L380.72 144.61L382.05 145.05L383.5 145.62L385.06 146.31L386.74 147.14L388.52 148.09L390.41 149.17L392.4 150.36L394.49 151.67L396.68 153.1L398.96 154.64L401.33 156.3L403.79 158.06L406.33 159.93L408.95 161.9L411.65 163.97L414.42 166.14L417.26 168.41L420.17 170.77L423.15 173.23L426.18 175.77L429.27 178.4L432.42 181.12L435.62 183.91L438.87 186.79L442.17 189.75L445.5 192.78L448.88 195.88L452.29 199.05L455.74 202.29L459.21 205.59L461.62 207.91L464.02 205.59L467.49 202.29L470.94 199.05L474.35 195.88L477.73 192.78L481.06 189.75L484.36 186.79L487.61 183.91L490.81 181.12L493.96 178.4L497.05 175.77L500.09 173.23L503.06 170.77L505.97 168.41L508.81 166.14L511.58 163.97L514.28 161.9L516.9 159.93L519.44 158.06L521.9 156.3L524.27 154.64L526.55 153.1L528.74 151.67L530.83 150.36L532.82 149.17L534.71 148.09L536.49 147.14L538.17 146.31L539.73 145.62L541.18 145.05L542.51 144.61L543.72 144.31L544.81 144.15L545.76 144.13L546.59 144.25L547.28 144.51ZM493.79 256.49L493.7 256.67L493.64 256.92L493.6 257.23L493.58 257.61L493.59 258.06L493.62 258.57L493.68 259.15L493.77 259.8L493.88 260.51L494.01 261.29L494.17 262.14L494.35 263.05L494.56 264.03L494.88 265.47L495.19 266.76L495.48 267.93L495.78 268.98L496.08 269.93L496.38 270.79L496.71 271.59L497.07 272.34L497.45 273.05L497.88 273.74L498.35 274.42L498.88 275.12L499.46 275.84L500.12 276.61L500.85 277.44L501.66 278.34L502.56 279.33L503.56 280.43L504.66 281.65L505.44 282.5L506.22 283.32L507.01 284.13L507.82 284.91L508.63 285.67L509.45 286.41L510.28 287.13L511.12 287.83L511.97 288.5L512.83 289.16L513.7 289.79L514.58 290.4L515.47 290.99L516.37 291.56L517.28 292.11L518.2 292.64L519.12 293.14L520.06 293.63L521 294.09L494.86 256.8L494.62 256.59L494.4 256.43L494.21 256.35L494.05 256.33L493.91 256.37L493.79 256.49ZM428.83 256.43L428.61 256.59L428.37 256.8L402.23 294.09L403.17 293.63L404.11 293.14L405.04 292.64L405.95 292.11L406.86 291.56L407.76 290.99L408.65 290.4L409.53 289.79L410.4 289.16L411.26 288.5L412.11 287.83L412.95 287.13L413.78 286.41L414.6 285.67L415.41 284.91L416.22 284.13L417.01 283.32L417.79 282.5L418.57 281.65L419.67 280.43L420.67 279.33L421.57 278.34L422.38 277.44L423.11 276.61L423.77 275.84L424.35 275.12L424.88 274.42L425.35 273.74L425.78 273.05L426.17 272.34L426.52 271.59L426.85 270.79L427.16 269.93L427.45 268.98L427.75 267.93L428.04 266.76L428.35 265.47L428.67 264.03L428.88 263.05L429.06 262.14L429.22 261.29L429.35 260.51L429.46 259.8L429.55 259.15L429.61 258.57L429.64 258.06L429.65 257.61L429.64 257.23L429.59 256.92L429.53 256.67L429.44 256.49L429.32 256.37L429.18 256.33L429.02 256.35L428.83 256.43ZM470.32 246.65L471.19 247.28L472.07 247.89L472.96 248.48L473.86 249.05L474.77 249.6L475.68 250.13L476.61 250.63L477.55 251.12L478.49 251.58L472.78 243.43L469.88 246.31L470.32 246.65ZM471.34 213.92L471.12 214.07L470.88 214.29L444.74 251.58L445.68 251.12L446.62 250.63L447.55 250.13L448.46 249.6L449.37 249.05L450.27 248.48L451.16 247.89L452.04 247.28L452.91 246.65L453.77 245.99L454.62 245.32L455.46 244.62L456.29 243.9L457.11 243.16L457.92 242.4L458.73 241.61L459.52 240.81L460.31 239.98L461.08 239.14L462.18 237.92L463.18 236.82L464.08 235.83L464.89 234.93L465.62 234.1L466.28 233.33L466.86 232.61L467.39 231.91L467.86 231.23L468.29 230.54L468.68 229.82L469.03 229.08L469.36 228.28L469.67 227.41L469.96 226.47L470.26 225.42L470.55 224.25L470.86 222.96L471.18 221.52L471.39 220.54L471.57 219.63L471.73 218.78L471.87 218L471.97 217.29L472.06 216.64L472.12 216.06L472.15 215.55L472.16 215.1L472.15 214.72L472.11 214.4L472.04 214.16L471.95 213.98L471.83 213.86L471.69 213.82L471.53 213.84L471.34 213.92ZM451.28 213.98L451.19 214.16L451.13 214.4L451.08 214.72L451.07 215.1L451.08 215.55L451.11 216.06L451.17 216.64L451.26 217.29L451.36 217.96L453.45 215.88L453.45 215.87L452.35 214.29L452.11 214.07L451.89 213.92L451.7 213.84L451.54 213.82L451.4 213.86L451.28 213.98ZM410.9 173.6L410.81 173.78L410.75 174.03L410.71 174.34L410.69 174.72L410.7 175.17L410.73 175.68L410.79 176.26L410.88 176.91L410.99 177.62L411.12 178.4L411.28 179.25L411.46 180.16L411.67 181.14L411.99 182.58L412.3 183.87L412.59 185.04L412.89 186.09L413.19 187.04L413.49 187.9L413.82 188.7L414.18 189.45L414.56 190.16L414.99 190.85L415.46 191.53L415.99 192.23L416.57 192.95L417.23 193.72L417.96 194.55L418.77 195.45L419.67 196.44L420.67 197.54L421.77 198.76L422.55 199.61L423.33 200.43L424.12 201.24L424.93 202.02L425.74 202.78L426.56 203.52L427.39 204.24L428.23 204.94L429.08 205.61L429.94 206.27L430.81 206.9L431.69 207.51L432.58 208.1L433.48 208.67L434.39 209.22L435.31 209.75L436.23 210.25L437.17 210.74L438.11 211.2L411.97 173.91L411.73 173.7L411.51 173.54L411.32 173.46L411.16 173.44L411.02 173.48L410.9 173.6ZM511.72 173.54L511.5 173.7L511.26 173.91L485.12 211.2L486.06 210.74L487 210.25L487.93 209.75L488.84 209.22L489.75 208.67L490.65 208.1L491.54 207.51L492.42 206.9L493.29 206.27L494.15 205.61L495 204.94L495.84 204.24L496.67 203.52L497.49 202.78L498.3 202.02L499.11 201.24L499.9 200.43L500.68 199.61L501.46 198.76L502.56 197.54L503.56 196.44L504.46 195.45L505.27 194.55L506 193.72L506.66 192.95L507.24 192.23L507.77 191.53L508.24 190.85L508.67 190.16L509.05 189.45L509.41 188.7L509.74 187.9L510.05 187.04L510.34 186.09L510.64 185.04L510.93 183.87L511.24 182.58L511.56 181.14L511.77 180.16L511.95 179.25L512.11 178.4L512.24 177.62L512.35 176.91L512.44 176.26L512.5 175.68L512.53 175.17L512.54 174.72L512.53 174.34L512.48 174.03L512.42 173.78L512.33 173.6L512.21 173.48L512.07 173.44L511.91 173.46L511.72 173.54Z" id="e1R3yeYAyQ"></path><path d="M296.64 144.51L297.2 144.92L297.61 145.48L297.87 146.17L297.99 147L297.97 147.95L297.81 149.04L297.51 150.25L297.07 151.58L296.51 153.03L295.81 154.59L294.98 156.27L294.03 158.05L292.96 159.94L291.76 161.93L290.45 164.02L289.02 166.21L287.48 168.49L285.82 170.86L284.06 173.32L282.2 175.86L280.22 178.48L278.15 181.18L275.98 183.95L273.71 186.79L271.35 189.7L268.89 192.67L266.35 195.71L263.72 198.8L261 201.95L258.21 205.15L255.33 208.4L252.38 211.7L249.35 215.03L246.24 218.41L243.07 221.82L239.83 225.27L236.53 228.74L234.22 231.15L236.53 233.55L239.83 237.02L243.07 240.47L246.24 243.88L249.35 247.26L252.38 250.59L255.33 253.89L258.21 257.14L261 260.34L263.72 263.49L266.35 266.58L268.89 269.61L271.35 272.59L273.71 275.5L275.98 278.34L278.15 281.11L280.22 283.81L282.2 286.43L284.06 288.97L285.82 291.43L287.48 293.8L289.02 296.08L290.45 298.27L291.76 300.36L292.96 302.35L294.03 304.24L294.98 306.02L295.81 307.7L296.51 309.26L297.07 310.71L297.51 312.04L297.81 313.25L297.97 314.34L297.99 315.29L297.87 316.12L297.61 316.81L297.2 317.37L296.64 317.78L295.95 318.04L295.13 318.16L294.17 318.14L293.08 317.98L291.87 317.68L290.54 317.24L289.09 316.67L287.53 315.97L285.86 315.15L284.07 314.2L282.18 313.12L280.19 311.93L278.1 310.62L275.91 309.19L273.63 307.65L271.26 305.99L268.8 304.23L266.26 302.36L263.64 300.39L260.94 298.32L258.17 296.15L255.33 293.88L252.42 291.52L249.45 289.06L246.41 286.52L243.32 283.89L240.17 281.17L236.97 278.37L233.72 275.5L230.43 272.54L227.09 269.51L223.71 266.41L220.3 263.24L216.86 260L213.38 256.7L210.98 254.38L208.57 256.7L205.1 260L201.65 263.24L198.24 266.41L194.87 269.51L191.53 272.54L188.23 275.5L184.99 278.37L181.78 281.17L178.64 283.89L175.54 286.52L172.51 289.06L169.53 291.52L166.62 293.88L163.78 296.15L161.01 298.32L158.31 300.39L155.69 302.36L153.15 304.23L150.69 305.99L148.32 307.65L146.04 309.19L143.86 310.62L141.77 311.93L139.77 313.12L137.88 314.2L136.1 315.15L134.42 315.97L132.86 316.67L131.41 317.24L130.08 317.68L128.87 317.98L127.79 318.14L126.83 318.16L126 318.04L125.31 317.78L124.76 317.37L124.34 316.81L124.08 316.12L123.96 315.29L123.98 314.34L124.15 313.25L124.45 312.04L124.88 310.71L125.45 309.26L126.15 307.7L126.97 306.02L127.92 304.24L129 302.35L130.19 300.36L131.51 298.27L132.93 296.08L134.48 293.8L136.13 291.43L137.89 288.97L139.76 286.43L141.73 283.81L143.8 281.11L145.98 278.34L148.24 275.5L150.61 272.59L153.06 269.61L155.6 266.58L158.23 263.49L160.95 260.34L163.75 257.14L166.62 253.89L169.58 250.59L172.61 247.26L175.71 243.88L178.88 240.47L182.12 237.02L185.43 233.55L187.74 231.15L185.43 228.74L182.12 225.27L178.88 221.82L175.71 218.41L172.61 215.03L169.58 211.7L166.62 208.4L163.75 205.15L160.95 201.95L158.23 198.8L155.6 195.71L153.06 192.67L150.61 189.7L148.24 186.79L145.98 183.95L143.8 181.18L141.73 178.48L139.76 175.86L137.89 173.32L136.13 170.86L134.48 168.49L132.93 166.21L131.51 164.02L130.19 161.93L129 159.94L127.92 158.05L126.97 156.27L126.15 154.59L125.45 153.03L124.88 151.58L124.45 150.25L124.15 149.04L123.98 147.95L123.96 147L124.08 146.17L124.34 145.48L124.76 144.92L125.31 144.51L126 144.25L126.83 144.13L127.79 144.15L128.87 144.31L130.08 144.61L131.41 145.05L132.86 145.62L134.42 146.31L136.1 147.14L137.88 148.09L139.77 149.17L141.77 150.36L143.86 151.67L146.04 153.1L148.32 154.64L150.69 156.3L153.15 158.06L155.69 159.93L158.31 161.9L161.01 163.97L163.78 166.14L166.62 168.41L169.53 170.77L172.51 173.23L175.54 175.77L178.64 178.4L181.78 181.12L184.99 183.91L188.23 186.79L191.53 189.75L194.87 192.78L198.24 195.88L201.65 199.05L205.1 202.29L208.57 205.59L210.98 207.91L213.38 205.59L216.86 202.29L220.3 199.05L223.71 195.88L227.09 192.78L230.43 189.75L233.72 186.79L236.97 183.91L240.17 181.12L243.32 178.4L246.41 175.77L249.45 173.23L252.42 170.77L255.33 168.41L258.17 166.14L260.94 163.97L263.64 161.9L266.26 159.93L268.8 158.06L271.26 156.3L273.63 154.64L275.91 153.1L278.1 151.67L280.19 150.36L282.18 149.17L284.07 148.09L285.86 147.14L287.53 146.31L289.09 145.62L290.54 145.05L291.87 144.61L293.08 144.31L294.17 144.15L295.13 144.13L295.95 144.25L296.64 144.51ZM243.15 256.49L243.06 256.67L243 256.92L242.96 257.23L242.94 257.61L242.95 258.06L242.99 258.57L243.04 259.15L243.13 259.8L243.24 260.51L243.37 261.29L243.53 262.14L243.72 263.05L243.92 264.03L244.25 265.47L244.55 266.76L244.85 267.93L245.14 268.98L245.44 269.93L245.75 270.79L246.07 271.59L246.43 272.34L246.81 273.05L247.24 273.74L247.71 274.42L248.24 275.12L248.83 275.84L249.48 276.61L250.21 277.44L251.02 278.34L251.93 279.33L252.92 280.43L254.02 281.65L254.8 282.5L255.58 283.32L256.38 284.13L257.18 284.91L257.99 285.67L258.81 286.41L259.64 287.13L260.49 287.83L261.34 288.5L262.2 289.16L263.07 289.79L263.95 290.4L264.83 290.99L265.73 291.56L266.64 292.11L267.56 292.64L268.48 293.14L269.42 293.63L270.37 294.09L244.22 256.8L243.98 256.59L243.76 256.43L243.57 256.35L243.41 256.33L243.27 256.37L243.15 256.49ZM178.19 256.43L177.97 256.59L177.73 256.8L151.59 294.09L152.53 293.63L153.47 293.14L154.4 292.64L155.31 292.11L156.22 291.56L157.12 290.99L158.01 290.4L158.89 289.79L159.76 289.16L160.62 288.5L161.47 287.83L162.31 287.13L163.14 286.41L163.96 285.67L164.78 284.91L165.58 284.13L166.37 283.32L167.16 282.5L167.93 281.65L169.03 280.43L170.03 279.33L170.93 278.34L171.74 277.44L172.47 276.61L173.13 275.84L173.72 275.12L174.24 274.42L174.71 273.74L175.14 273.05L175.53 272.34L175.88 271.59L176.21 270.79L176.52 269.93L176.81 268.98L177.11 267.93L177.4 266.76L177.71 265.47L178.03 264.03L178.24 263.05L178.42 262.14L178.58 261.29L178.72 260.51L178.83 259.8L178.91 259.15L178.97 258.57L179 258.06L179.01 257.61L179 257.23L178.96 256.92L178.89 256.67L178.8 256.49L178.69 256.37L178.55 256.33L178.38 256.35L178.19 256.43ZM219.69 246.65L220.56 247.28L221.43 247.89L222.32 248.48L223.22 249.05L224.13 249.6L225.05 250.13L225.97 250.63L226.91 251.12L227.85 251.58L222.14 243.43L219.25 246.31L219.69 246.65ZM220.7 213.92L220.49 214.07L220.25 214.29L194.1 251.58L195.05 251.12L195.98 250.63L196.91 250.13L197.83 249.6L198.73 249.05L199.63 248.48L200.52 247.89L201.4 247.28L202.27 246.65L203.13 245.99L203.98 245.32L204.82 244.62L205.65 243.9L206.47 243.16L207.29 242.4L208.09 241.61L208.88 240.81L209.67 239.98L210.44 239.14L211.54 237.92L212.54 236.82L213.44 235.83L214.25 234.93L214.98 234.1L215.64 233.33L216.23 232.61L216.75 231.91L217.23 231.23L217.65 230.54L218.04 229.82L218.39 229.08L218.72 228.28L219.03 227.41L219.33 226.47L219.62 225.42L219.91 224.25L220.22 222.96L220.54 221.52L220.75 220.54L220.93 219.63L221.09 218.78L221.23 218L221.34 217.29L221.42 216.64L221.48 216.06L221.51 215.55L221.52 215.1L221.51 214.72L221.47 214.4L221.4 214.16L221.31 213.98L221.2 213.86L221.06 213.82L220.89 213.84L220.7 213.92ZM200.64 213.98L200.55 214.16L200.49 214.4L200.45 214.72L200.43 215.1L200.44 215.55L200.47 216.06L200.53 216.64L200.62 217.29L200.72 217.96L202.81 215.88L202.82 215.87L201.71 214.29L201.47 214.07L201.25 213.92L201.06 213.84L200.9 213.82L200.76 213.86L200.64 213.98ZM160.26 173.6L160.17 173.78L160.11 174.03L160.07 174.34L160.05 174.72L160.06 175.17L160.1 175.68L160.16 176.26L160.24 176.91L160.35 177.62L160.48 178.4L160.64 179.25L160.83 180.16L161.03 181.14L161.36 182.58L161.66 183.87L161.96 185.04L162.25 186.09L162.55 187.04L162.86 187.9L163.18 188.7L163.54 189.45L163.92 190.16L164.35 190.85L164.82 191.53L165.35 192.23L165.94 192.95L166.59 193.72L167.32 194.55L168.13 195.45L169.04 196.44L170.03 197.54L171.13 198.76L171.91 199.61L172.69 200.43L173.49 201.24L174.29 202.02L175.1 202.78L175.92 203.52L176.75 204.24L177.6 204.94L178.45 205.61L179.31 206.27L180.18 206.9L181.06 207.51L181.94 208.1L182.84 208.67L183.75 209.22L184.67 209.75L185.59 210.25L186.53 210.74L187.48 211.2L161.33 173.91L161.09 173.7L160.87 173.54L160.68 173.46L160.52 173.44L160.38 173.48L160.26 173.6ZM261.08 173.54L260.86 173.7L260.62 173.91L234.48 211.2L235.42 210.74L236.36 210.25L237.29 209.75L238.2 209.22L239.11 208.67L240.01 208.1L240.9 207.51L241.78 206.9L242.65 206.27L243.51 205.61L244.36 204.94L245.2 204.24L246.03 203.52L246.85 202.78L247.67 202.02L248.47 201.24L249.26 200.43L250.05 199.61L250.82 198.76L251.92 197.54L252.92 196.44L253.82 195.45L254.63 194.55L255.36 193.72L256.02 192.95L256.61 192.23L257.13 191.53L257.6 190.85L258.03 190.16L258.42 189.45L258.77 188.7L259.1 187.9L259.41 187.04L259.7 186.09L260 185.04L260.29 183.87L260.6 182.58L260.92 181.14L261.13 180.16L261.31 179.25L261.47 178.4L261.61 177.62L261.71 176.91L261.8 176.26L261.86 175.68L261.89 175.17L261.9 174.72L261.89 174.34L261.85 174.03L261.78 173.78L261.69 173.6L261.58 173.48L261.43 173.44L261.27 173.46L261.08 173.54Z" id="ctGADlkFr"></path><path d="" id="cwk4wBxYv"></path><path d="M513.08 419.8L512.36 424.83L511.35 429.8L510.07 434.7L508.51 439.54L506.7 444.3L504.62 448.98L502.3 453.59L499.72 458.11L496.91 462.54L493.86 466.88L490.58 471.12L487.08 475.26L483.36 479.3L479.43 483.22L475.29 487.04L470.95 490.74L466.42 494.31L461.7 497.76L456.79 501.08L451.7 504.27L446.45 507.32L441.02 510.23L435.44 513L429.7 515.62L423.81 518.08L417.78 520.38L411.61 522.53L405.31 524.51L398.88 526.32L392.34 527.95L385.67 529.41L378.9 530.69L372.03 531.78L365.05 532.68L357.99 533.39L350.84 533.9L343.6 534.21L336.3 534.32L328.99 534.21L321.76 533.9L314.61 533.39L307.54 532.68L300.57 531.78L293.69 530.69L286.92 529.41L280.26 527.95L273.71 526.32L267.28 524.51L260.98 522.53L254.81 520.38L248.78 518.08L242.89 515.62L237.15 513L231.57 510.23L226.15 507.32L220.89 504.27L215.8 501.08L210.9 497.76L206.17 494.31L201.64 490.74L197.3 487.04L193.16 483.22L189.23 479.3L185.51 475.26L182.01 471.12L178.73 466.88L175.68 462.54L172.87 458.11L170.3 453.59L167.97 448.98L165.89 444.3L164.08 439.54L162.53 434.7L161.24 429.8L160.24 424.83L159.51 419.8L159.07 414.71L158.92 409.57L513.67 409.57L513.52 414.71L513.08 419.8Z" id="a4sZepLIjY"></path></defs><g><g><g><use xlink:href="#c303jwTG9J" opacity="1" fill="#ffffff" fill-opacity="1"></use><g><use xlink:href="#c303jwTG9J" opacity="1" fill-opacity="0" stroke="#05bf85" stroke-width="10" stroke-opacity="1"></use></g></g><g><use xlink:href="#e1R3yeYAyQ" opacity="1" fill="#05bf85" fill-opacity="1"></use></g><g><use xlink:href="#ctGADlkFr" opacity="1" fill="#05bf85" fill-opacity="1"></use></g><g><g><use xlink:href="#cwk4wBxYv" opacity="1" fill-opacity="0" stroke="#000000" stroke-width="1" stroke-opacity="1"></use></g></g><g><use xlink:href="#a4sZepLIjY" opacity="1" fill="#05bf85" fill-opacity="1"></use><g><use xlink:href="#a4sZepLIjY" opacity="1" fill-opacity="0" stroke="#05bf85" stroke-width="10" stroke-opacity="1"></use></g></g></g></g></svg>