<?xml version="1.0" encoding="UTF-8" standalone="no"?>
<!DOCTYPE svg PUBLIC "-//W3C//DTD SVG 1.1//EN" "http://www.w3.org/Graphics/SVG/1.1/DTD/svg11.dtd">
<svg version="1.1" xmlns="http://www.w3.org/2000/svg" xmlns:xlink="http://www.w3.org/1999/xlink" preserveAspectRatio="xMidYMid meet" viewBox="-1478.9422064844534 -68.18500000000017 3571.2261923204605 778.3700000000001" width="3567.23" height="774.37"><defs><path d="M2089.28 -67.19L2089.28 707.19L-1477.94 707.19L-1477.94 -67.19L2089.28 -67.19Z" id="bewqMt498"></path><linearGradient id="gradienteIQnUinRL" gradientUnits="userSpaceOnUse" x1="-811.45" y1="-67.19" x2="1784.66" y2="-41.74"><stop style="stop-color: #ffffff;stop-opacity: 1" offset="0%"></stop><stop style="stop-color: #05bf85;stop-opacity: 1" offset="100%"></stop></linearGradient><path d="M-588.59 320C-588.59 482.1 -720.2 613.7 -882.3 613.7C-1044.4 613.7 -1176 482.1 -1176 320C-1176 157.9 -1044.4 26.3 -882.3 26.3C-720.2 26.3 -588.59 157.9 -588.59 320Z" id="ddNb8sukw"></path><path d="M-671.31 152.66L-670.76 153.07L-670.34 153.63L-670.08 154.32L-669.96 155.14L-669.98 156.1L-670.15 157.19L-670.45 158.4L-670.88 159.73L-671.45 161.18L-672.15 162.74L-672.97 164.41L-673.92 166.2L-675 168.09L-676.19 170.08L-677.51 172.17L-678.93 174.36L-680.48 176.64L-682.13 179.01L-683.89 181.47L-685.76 184.01L-687.73 186.63L-689.8 189.33L-691.98 192.1L-694.24 194.94L-696.61 197.85L-699.06 200.82L-701.6 203.86L-704.23 206.95L-706.95 210.1L-709.75 213.3L-712.62 216.55L-715.58 219.84L-718.61 223.18L-721.71 226.56L-724.88 229.97L-728.12 233.41L-731.43 236.89L-733.74 239.29L-731.43 241.7L-728.12 245.17L-724.88 248.62L-721.71 252.03L-718.61 255.4L-715.58 258.74L-712.62 262.04L-709.75 265.28L-706.95 268.49L-704.23 271.63L-701.6 274.73L-699.06 277.76L-696.61 280.74L-694.24 283.65L-691.98 286.49L-689.8 289.26L-687.73 291.96L-685.76 294.58L-683.89 297.12L-682.13 299.58L-680.48 301.95L-678.93 304.23L-677.51 306.41L-676.19 308.5L-675 310.5L-673.92 312.39L-672.97 314.17L-672.15 315.85L-671.45 317.41L-670.88 318.86L-670.45 320.19L-670.15 321.4L-669.98 322.48L-669.96 323.44L-670.08 324.27L-670.34 324.96L-670.76 325.51L-671.31 325.93L-672 326.19L-672.83 326.31L-673.79 326.29L-674.87 326.12L-676.08 325.82L-677.41 325.39L-678.86 324.82L-680.42 324.12L-682.1 323.3L-683.88 322.35L-685.77 321.27L-687.77 320.08L-689.86 318.76L-692.04 317.34L-694.32 315.79L-696.69 314.14L-699.15 312.38L-701.69 310.51L-704.31 308.54L-707.01 306.47L-709.78 304.29L-712.62 302.03L-715.53 299.66L-718.51 297.21L-721.54 294.67L-724.64 292.04L-727.78 289.32L-730.99 286.52L-734.23 283.65L-737.53 280.69L-740.87 277.66L-744.24 274.56L-747.65 271.39L-751.1 268.15L-754.57 264.84L-756.98 262.53L-759.38 264.84L-762.86 268.15L-766.3 271.39L-769.71 274.56L-773.09 277.66L-776.43 280.69L-779.72 283.65L-782.97 286.52L-786.17 289.32L-789.32 292.04L-792.41 294.67L-795.45 297.21L-798.42 299.66L-801.33 302.03L-804.17 304.29L-806.94 306.47L-809.64 308.54L-812.26 310.51L-814.8 312.38L-817.26 314.14L-819.63 315.79L-821.91 317.34L-824.1 318.76L-826.19 320.08L-828.18 321.27L-830.07 322.35L-831.86 323.3L-833.53 324.12L-835.09 324.82L-836.54 325.39L-837.87 325.82L-839.08 326.12L-840.17 326.29L-841.13 326.31L-841.95 326.19L-842.64 325.93L-843.2 325.51L-843.61 324.96L-843.87 324.27L-843.99 323.44L-843.97 322.48L-843.81 321.4L-843.51 320.19L-843.07 318.86L-842.51 317.41L-841.81 315.85L-840.98 314.17L-840.03 312.39L-838.96 310.5L-837.76 308.5L-836.45 306.41L-835.02 304.23L-833.48 301.95L-831.82 299.58L-830.06 297.12L-828.2 294.58L-826.22 291.96L-824.15 289.26L-821.98 286.49L-819.71 283.65L-817.35 280.74L-814.89 277.76L-812.35 274.73L-809.72 271.63L-807 268.49L-804.21 265.28L-801.33 262.04L-798.38 258.74L-795.35 255.4L-792.24 252.03L-789.07 248.62L-785.83 245.17L-782.53 241.7L-780.22 239.29L-782.53 236.89L-785.83 233.41L-789.07 229.97L-792.24 226.56L-795.35 223.18L-798.38 219.84L-801.33 216.55L-804.21 213.3L-807 210.1L-809.72 206.95L-812.35 203.86L-814.89 200.82L-817.35 197.85L-819.71 194.94L-821.98 192.1L-824.15 189.33L-826.22 186.63L-828.2 184.01L-830.06 181.47L-831.82 179.01L-833.48 176.64L-835.02 174.36L-836.45 172.17L-837.76 170.08L-838.96 168.09L-840.03 166.2L-840.98 164.41L-841.81 162.74L-842.51 161.18L-843.07 159.73L-843.51 158.4L-843.81 157.19L-843.97 156.1L-843.99 155.14L-843.87 154.32L-843.61 153.63L-843.2 153.07L-842.64 152.66L-841.95 152.4L-841.13 152.28L-840.17 152.3L-839.08 152.46L-837.87 152.76L-836.54 153.2L-835.09 153.77L-833.53 154.46L-831.86 155.29L-830.07 156.24L-828.18 157.31L-826.19 158.51L-824.1 159.82L-821.91 161.25L-819.63 162.79L-817.26 164.45L-814.8 166.21L-812.26 168.07L-809.64 170.05L-806.94 172.12L-804.17 174.29L-801.33 176.56L-798.42 178.92L-795.45 181.38L-792.41 183.92L-789.32 186.55L-786.17 189.27L-782.97 192.06L-779.72 194.94L-776.43 197.89L-773.09 200.92L-769.71 204.03L-766.3 207.2L-762.86 210.44L-759.38 213.74L-756.98 216.05L-754.57 213.74L-751.1 210.44L-747.65 207.2L-744.24 204.03L-740.87 200.92L-737.53 197.89L-734.23 194.94L-730.99 192.06L-727.78 189.27L-724.64 186.55L-721.54 183.92L-718.51 181.38L-715.53 178.92L-712.62 176.56L-709.78 174.29L-707.01 172.12L-704.31 170.05L-701.69 168.07L-699.15 166.21L-696.69 164.45L-694.32 162.79L-692.04 161.25L-689.86 159.82L-687.77 158.51L-685.77 157.31L-683.88 156.24L-682.1 155.29L-680.42 154.46L-678.86 153.77L-677.41 153.2L-676.08 152.76L-674.87 152.46L-673.79 152.3L-672.83 152.28L-672 152.4L-671.31 152.66ZM-724.8 264.64L-724.89 264.82L-724.96 265.06L-725 265.38L-725.01 265.76L-725 266.2L-724.97 266.72L-724.91 267.3L-724.83 267.95L-724.72 268.66L-724.58 269.44L-724.42 270.28L-724.24 271.2L-724.03 272.18L-723.71 273.62L-723.4 274.91L-723.11 276.08L-722.81 277.12L-722.52 278.07L-722.21 278.94L-721.88 279.74L-721.53 280.48L-721.14 281.19L-720.71 281.88L-720.24 282.57L-719.72 283.27L-719.13 283.99L-718.47 284.76L-717.74 285.59L-716.93 286.49L-716.03 287.48L-715.03 288.58L-713.93 289.8L-713.16 290.64L-712.37 291.47L-711.58 292.27L-710.78 293.06L-709.96 293.82L-709.14 294.56L-708.31 295.28L-707.47 295.97L-706.62 296.65L-705.76 297.31L-704.89 297.94L-704.01 298.55L-703.12 299.14L-702.22 299.71L-701.31 300.26L-700.4 300.79L-699.47 301.29L-698.53 301.78L-697.59 302.24L-723.73 264.95L-723.97 264.73L-724.19 264.58L-724.38 264.5L-724.55 264.48L-724.69 264.52L-724.8 264.64ZM-789.76 264.58L-789.98 264.73L-790.22 264.95L-816.37 302.24L-815.42 301.78L-814.48 301.29L-813.56 300.79L-812.64 300.26L-811.73 299.71L-810.83 299.14L-809.95 298.55L-809.07 297.94L-808.2 297.31L-807.34 296.65L-806.49 295.97L-805.64 295.28L-804.81 294.56L-803.99 293.82L-803.18 293.06L-802.38 292.27L-801.58 291.47L-800.8 290.64L-800.02 289.8L-798.92 288.58L-797.93 287.48L-797.02 286.49L-796.21 285.59L-795.48 284.76L-794.83 283.99L-794.24 283.27L-793.71 282.57L-793.24 281.88L-792.81 281.19L-792.43 280.48L-792.07 279.74L-791.75 278.94L-791.44 278.07L-791.14 277.12L-790.85 276.08L-790.55 274.91L-790.25 273.62L-789.92 272.18L-789.72 271.2L-789.53 270.28L-789.37 269.44L-789.24 268.66L-789.13 267.95L-789.04 267.3L-788.99 266.72L-788.95 266.2L-788.94 265.76L-788.96 265.38L-789 265.06L-789.06 264.82L-789.15 264.64L-789.27 264.52L-789.41 264.48L-789.57 264.5L-789.76 264.58ZM-748.27 254.8L-747.4 255.43L-746.52 256.04L-745.63 256.63L-744.73 257.2L-743.83 257.75L-742.91 258.28L-741.98 258.78L-741.05 259.27L-740.1 259.73L-745.81 251.58L-748.71 254.46L-748.27 254.8ZM-747.25 222.07L-747.47 222.22L-747.71 222.44L-773.85 259.73L-772.91 259.27L-771.97 258.78L-771.05 258.28L-770.13 257.75L-769.22 257.2L-768.32 256.63L-767.43 256.04L-766.56 255.43L-765.69 254.8L-764.83 254.14L-763.97 253.46L-763.13 252.77L-762.3 252.05L-761.48 251.31L-760.67 250.55L-759.86 249.76L-759.07 248.96L-758.29 248.13L-757.51 247.29L-756.41 246.07L-755.41 244.97L-754.51 243.98L-753.7 243.08L-752.97 242.25L-752.32 241.48L-751.73 240.76L-751.2 240.06L-750.73 239.37L-750.3 238.68L-749.92 237.97L-749.56 237.23L-749.24 236.43L-748.93 235.56L-748.63 234.61L-748.34 233.57L-748.04 232.4L-747.74 231.11L-747.41 229.67L-747.2 228.69L-747.02 227.77L-746.86 226.93L-746.73 226.15L-746.62 225.43L-746.53 224.79L-746.47 224.21L-746.44 223.69L-746.43 223.25L-746.45 222.87L-746.49 222.55L-746.55 222.31L-746.64 222.13L-746.76 222.01L-746.9 221.96L-747.06 221.98L-747.25 222.07ZM-767.31 222.13L-767.4 222.31L-767.47 222.55L-767.51 222.87L-767.52 223.25L-767.51 223.69L-767.48 224.21L-767.42 224.79L-767.34 225.43L-767.23 226.1L-765.14 224.02L-765.14 224.02L-766.25 222.44L-766.49 222.22L-766.7 222.07L-766.89 221.98L-767.06 221.96L-767.2 222.01L-767.31 222.13ZM-807.69 181.75L-807.78 181.93L-807.85 182.17L-807.89 182.49L-807.9 182.87L-807.89 183.32L-807.86 183.83L-807.8 184.41L-807.71 185.06L-807.61 185.77L-807.47 186.55L-807.31 187.39L-807.13 188.31L-806.92 189.29L-806.6 190.73L-806.29 192.02L-806 193.19L-805.7 194.23L-805.41 195.18L-805.1 196.05L-804.77 196.85L-804.42 197.59L-804.03 198.3L-803.6 198.99L-803.13 199.68L-802.61 200.38L-802.02 201.1L-801.36 201.87L-800.63 202.7L-799.82 203.6L-798.92 204.59L-797.92 205.69L-796.82 206.91L-796.05 207.75L-795.26 208.58L-794.47 209.38L-793.67 210.17L-792.85 210.93L-792.03 211.67L-791.2 212.39L-790.36 213.09L-789.51 213.76L-788.65 214.42L-787.78 215.05L-786.9 215.66L-786.01 216.25L-785.11 216.82L-784.2 217.37L-783.29 217.9L-782.36 218.4L-781.42 218.89L-780.48 219.35L-806.62 182.06L-806.86 181.84L-807.08 181.69L-807.27 181.61L-807.43 181.59L-807.58 181.63L-807.69 181.75ZM-706.87 181.69L-707.09 181.84L-707.33 182.06L-733.48 219.35L-732.53 218.89L-731.59 218.4L-730.67 217.9L-729.75 217.37L-728.84 216.82L-727.94 216.25L-727.06 215.66L-726.18 215.05L-725.31 214.42L-724.45 213.76L-723.6 213.09L-722.75 212.39L-721.92 211.67L-721.1 210.93L-720.29 210.17L-719.49 209.38L-718.69 208.58L-717.91 207.75L-717.13 206.91L-716.03 205.69L-715.04 204.59L-714.13 203.6L-713.32 202.7L-712.59 201.87L-711.94 201.1L-711.35 200.38L-710.82 199.68L-710.35 198.99L-709.92 198.3L-709.54 197.59L-709.18 196.85L-708.86 196.05L-708.55 195.18L-708.25 194.23L-707.96 193.19L-707.66 192.02L-707.36 190.73L-707.03 189.29L-706.83 188.31L-706.64 187.39L-706.48 186.55L-706.35 185.77L-706.24 185.06L-706.16 184.41L-706.1 183.83L-706.06 183.32L-706.05 182.87L-706.07 182.49L-706.11 182.17L-706.17 181.93L-706.26 181.75L-706.38 181.63L-706.52 181.59L-706.68 181.61L-706.87 181.69Z" id="d35plgGymu"></path><path d="M-921.95 152.66L-921.39 153.07L-920.98 153.63L-920.72 154.32L-920.6 155.14L-920.62 156.1L-920.78 157.19L-921.08 158.4L-921.52 159.73L-922.09 161.18L-922.79 162.74L-923.61 164.41L-924.56 166.2L-925.64 168.09L-926.83 170.08L-928.14 172.17L-929.57 174.36L-931.11 176.64L-932.77 179.01L-934.53 181.47L-936.4 184.01L-938.37 186.63L-940.44 189.33L-942.61 192.1L-944.88 194.94L-947.24 197.85L-949.7 200.82L-952.24 203.86L-954.87 206.95L-957.59 210.1L-960.39 213.3L-963.26 216.55L-966.22 219.84L-969.25 223.18L-972.35 226.56L-975.52 229.97L-978.76 233.41L-982.06 236.89L-984.38 239.29L-982.06 241.7L-978.76 245.17L-975.52 248.62L-972.35 252.03L-969.25 255.4L-966.22 258.74L-963.26 262.04L-960.39 265.28L-957.59 268.49L-954.87 271.63L-952.24 274.73L-949.7 277.76L-947.24 280.74L-944.88 283.65L-942.61 286.49L-940.44 289.26L-938.37 291.96L-936.4 294.58L-934.53 297.12L-932.77 299.58L-931.11 301.95L-929.57 304.23L-928.14 306.41L-926.83 308.5L-925.64 310.5L-924.56 312.39L-923.61 314.17L-922.79 315.85L-922.09 317.41L-921.52 318.86L-921.08 320.19L-920.78 321.4L-920.62 322.48L-920.6 323.44L-920.72 324.27L-920.98 324.96L-921.39 325.51L-921.95 325.93L-922.64 326.19L-923.47 326.31L-924.42 326.29L-925.51 326.12L-926.72 325.82L-928.05 325.39L-929.5 324.82L-931.06 324.12L-932.74 323.3L-934.52 322.35L-936.41 321.27L-938.4 320.08L-940.49 318.76L-942.68 317.34L-944.96 315.79L-947.33 314.14L-949.79 312.38L-952.33 310.51L-954.95 308.54L-957.65 306.47L-960.42 304.29L-963.26 302.03L-966.17 299.66L-969.15 297.21L-972.18 294.67L-975.27 292.04L-978.42 289.32L-981.62 286.52L-984.87 283.65L-988.17 280.69L-991.5 277.66L-994.88 274.56L-998.29 271.39L-1001.74 268.15L-1005.21 264.84L-1007.61 262.53L-1010.02 264.84L-1013.49 268.15L-1016.94 271.39L-1020.35 274.56L-1023.73 277.66L-1027.06 280.69L-1030.36 283.65L-1033.61 286.52L-1036.81 289.32L-1039.96 292.04L-1043.05 294.67L-1046.09 297.21L-1049.06 299.66L-1051.97 302.03L-1054.81 304.29L-1057.58 306.47L-1060.28 308.54L-1062.9 310.51L-1065.44 312.38L-1067.9 314.14L-1070.27 315.79L-1072.55 317.34L-1074.74 318.76L-1076.83 320.08L-1078.82 321.27L-1080.71 322.35L-1082.49 323.3L-1084.17 324.12L-1085.73 324.82L-1087.18 325.39L-1088.51 325.82L-1089.72 326.12L-1090.81 326.29L-1091.76 326.31L-1092.59 326.19L-1093.28 325.93L-1093.84 325.51L-1094.25 324.96L-1094.51 324.27L-1094.63 323.44L-1094.61 322.48L-1094.45 321.4L-1094.15 320.19L-1093.71 318.86L-1093.14 317.41L-1092.45 315.85L-1091.62 314.17L-1090.67 312.39L-1089.59 310.5L-1088.4 308.5L-1087.09 306.41L-1085.66 304.23L-1084.12 301.95L-1082.46 299.58L-1080.7 297.12L-1078.83 294.58L-1076.86 291.96L-1074.79 289.26L-1072.62 286.49L-1070.35 283.65L-1067.99 280.74L-1065.53 277.76L-1062.99 274.73L-1060.36 271.63L-1057.64 268.49L-1054.85 265.28L-1051.97 262.04L-1049.01 258.74L-1045.98 255.4L-1042.88 252.03L-1039.71 248.62L-1036.47 245.17L-1033.17 241.7L-1030.85 239.29L-1033.17 236.89L-1036.47 233.41L-1039.71 229.97L-1042.88 226.56L-1045.98 223.18L-1049.01 219.84L-1051.97 216.55L-1054.85 213.3L-1057.64 210.1L-1060.36 206.95L-1062.99 203.86L-1065.53 200.82L-1067.99 197.85L-1070.35 194.94L-1072.62 192.1L-1074.79 189.33L-1076.86 186.63L-1078.83 184.01L-1080.7 181.47L-1082.46 179.01L-1084.12 176.64L-1085.66 174.36L-1087.09 172.17L-1088.4 170.08L-1089.59 168.09L-1090.67 166.2L-1091.62 164.41L-1092.45 162.74L-1093.14 161.18L-1093.71 159.73L-1094.15 158.4L-1094.45 157.19L-1094.61 156.1L-1094.63 155.14L-1094.51 154.32L-1094.25 153.63L-1093.84 153.07L-1093.28 152.66L-1092.59 152.4L-1091.76 152.28L-1090.81 152.3L-1089.72 152.46L-1088.51 152.76L-1087.18 153.2L-1085.73 153.77L-1084.17 154.46L-1082.49 155.29L-1080.71 156.24L-1078.82 157.31L-1076.83 158.51L-1074.74 159.82L-1072.55 161.25L-1070.27 162.79L-1067.9 164.45L-1065.44 166.21L-1062.9 168.07L-1060.28 170.05L-1057.58 172.12L-1054.81 174.29L-1051.97 176.56L-1049.06 178.92L-1046.09 181.38L-1043.05 183.92L-1039.96 186.55L-1036.81 189.27L-1033.61 192.06L-1030.36 194.94L-1027.06 197.89L-1023.73 200.92L-1020.35 204.03L-1016.94 207.2L-1013.49 210.44L-1010.02 213.74L-1007.61 216.05L-1005.21 213.74L-1001.74 210.44L-998.29 207.2L-994.88 204.03L-991.5 200.92L-988.17 197.89L-984.87 194.94L-981.62 192.06L-978.42 189.27L-975.27 186.55L-972.18 183.92L-969.15 181.38L-966.17 178.92L-963.26 176.56L-960.42 174.29L-957.65 172.12L-954.95 170.05L-952.33 168.07L-949.79 166.21L-947.33 164.45L-944.96 162.79L-942.68 161.25L-940.49 159.82L-938.4 158.51L-936.41 157.31L-934.52 156.24L-932.74 155.29L-931.06 154.46L-929.5 153.77L-928.05 153.2L-926.72 152.76L-925.51 152.46L-924.42 152.3L-923.47 152.28L-922.64 152.4L-921.95 152.66ZM-975.44 264.64L-975.53 264.82L-975.59 265.06L-975.64 265.38L-975.65 265.76L-975.64 266.2L-975.61 266.72L-975.55 267.3L-975.46 267.95L-975.35 268.66L-975.22 269.44L-975.06 270.28L-974.88 271.2L-974.67 272.18L-974.35 273.62L-974.04 274.91L-973.75 276.08L-973.45 277.12L-973.16 278.07L-972.85 278.94L-972.52 279.74L-972.17 280.48L-971.78 281.19L-971.35 281.88L-970.88 282.57L-970.35 283.27L-969.77 283.99L-969.11 284.76L-968.38 285.59L-967.57 286.49L-966.67 287.48L-965.67 288.58L-964.57 289.8L-963.79 290.64L-963.01 291.47L-962.22 292.27L-961.41 293.06L-960.6 293.82L-959.78 294.56L-958.95 295.28L-958.11 295.97L-957.26 296.65L-956.4 297.31L-955.53 297.94L-954.65 298.55L-953.76 299.14L-952.86 299.71L-951.95 300.26L-951.04 300.79L-950.11 301.29L-949.17 301.78L-948.23 302.24L-974.37 264.95L-974.61 264.73L-974.83 264.58L-975.02 264.5L-975.18 264.48L-975.32 264.52L-975.44 264.64ZM-1040.4 264.58L-1040.62 264.73L-1040.86 264.95L-1067 302.24L-1066.06 301.78L-1065.12 301.29L-1064.2 300.79L-1063.28 300.26L-1062.37 299.71L-1061.47 299.14L-1060.58 298.55L-1059.7 297.94L-1058.83 297.31L-1057.97 296.65L-1057.12 295.97L-1056.28 295.28L-1055.45 294.56L-1054.63 293.82L-1053.82 293.06L-1053.01 292.27L-1052.22 291.47L-1051.44 290.64L-1050.66 289.8L-1049.56 288.58L-1048.56 287.48L-1047.66 286.49L-1046.85 285.59L-1046.12 284.76L-1045.46 283.99L-1044.88 283.27L-1044.35 282.57L-1043.88 281.88L-1043.45 281.19L-1043.07 280.48L-1042.71 279.74L-1042.38 278.94L-1042.08 278.07L-1041.78 277.12L-1041.48 276.08L-1041.19 274.91L-1040.88 273.62L-1040.56 272.18L-1040.35 271.2L-1040.17 270.28L-1040.01 269.44L-1039.88 268.66L-1039.77 267.95L-1039.68 267.3L-1039.62 266.72L-1039.59 266.2L-1039.58 265.76L-1039.6 265.38L-1039.64 265.06L-1039.7 264.82L-1039.79 264.64L-1039.91 264.52L-1040.05 264.48L-1040.21 264.5L-1040.4 264.58ZM-998.91 254.8L-998.04 255.43L-997.16 256.04L-996.27 256.63L-995.37 257.2L-994.46 257.75L-993.55 258.28L-992.62 258.78L-991.68 259.27L-990.74 259.73L-996.45 251.58L-999.35 254.46L-998.91 254.8ZM-997.89 222.07L-998.11 222.22L-998.35 222.44L-1024.49 259.73L-1023.55 259.27L-1022.61 258.78L-1021.68 258.28L-1020.77 257.75L-1019.86 257.2L-1018.96 256.63L-1018.07 256.04L-1017.19 255.43L-1016.32 254.8L-1015.46 254.14L-1014.61 253.46L-1013.77 252.77L-1012.94 252.05L-1012.12 251.31L-1011.31 250.55L-1010.5 249.76L-1009.71 248.96L-1008.93 248.13L-1008.15 247.29L-1007.05 246.07L-1006.05 244.97L-1005.15 243.98L-1004.34 243.08L-1003.61 242.25L-1002.95 241.48L-1002.37 240.76L-1001.84 240.06L-1001.37 239.37L-1000.94 238.68L-1000.55 237.97L-1000.2 237.23L-999.87 236.43L-999.56 235.56L-999.27 234.61L-998.97 233.57L-998.68 232.4L-998.37 231.11L-998.05 229.67L-997.84 228.69L-997.66 227.77L-997.5 226.93L-997.37 226.15L-997.26 225.43L-997.17 224.79L-997.11 224.21L-997.08 223.69L-997.07 223.25L-997.08 222.87L-997.13 222.55L-997.19 222.31L-997.28 222.13L-997.4 222.01L-997.54 221.96L-997.7 221.98L-997.89 222.07ZM-1017.95 222.13L-1018.04 222.31L-1018.11 222.55L-1018.15 222.87L-1018.16 223.25L-1018.15 223.69L-1018.12 224.21L-1018.06 224.79L-1017.97 225.43L-1017.87 226.1L-1015.78 224.02L-1015.78 224.02L-1016.88 222.44L-1017.12 222.22L-1017.34 222.07L-1017.53 221.98L-1017.69 221.96L-1017.83 222.01L-1017.95 222.13ZM-1058.33 181.75L-1058.42 181.93L-1058.48 182.17L-1058.53 182.49L-1058.54 182.87L-1058.53 183.32L-1058.5 183.83L-1058.44 184.41L-1058.35 185.06L-1058.24 185.77L-1058.11 186.55L-1057.95 187.39L-1057.77 188.31L-1057.56 189.29L-1057.24 190.73L-1056.93 192.02L-1056.64 193.19L-1056.34 194.23L-1056.05 195.18L-1055.74 196.05L-1055.41 196.85L-1055.05 197.59L-1054.67 198.3L-1054.24 198.99L-1053.77 199.68L-1053.24 200.38L-1052.66 201.1L-1052 201.87L-1051.27 202.7L-1050.46 203.6L-1049.56 204.59L-1048.56 205.69L-1047.46 206.91L-1046.68 207.75L-1045.9 208.58L-1045.11 209.38L-1044.3 210.17L-1043.49 210.93L-1042.67 211.67L-1041.84 212.39L-1041 213.09L-1040.15 213.76L-1039.29 214.42L-1038.42 215.05L-1037.54 215.66L-1036.65 216.25L-1035.75 216.82L-1034.84 217.37L-1033.93 217.9L-1033 218.4L-1032.06 218.89L-1031.12 219.35L-1057.26 182.06L-1057.5 181.84L-1057.72 181.69L-1057.91 181.61L-1058.07 181.59L-1058.21 181.63L-1058.33 181.75ZM-957.51 181.69L-957.73 181.84L-957.97 182.06L-984.11 219.35L-983.17 218.89L-982.23 218.4L-981.31 217.9L-980.39 217.37L-979.48 216.82L-978.58 216.25L-977.69 215.66L-976.81 215.05L-975.94 214.42L-975.08 213.76L-974.23 213.09L-973.39 212.39L-972.56 211.67L-971.74 210.93L-970.93 210.17L-970.12 209.38L-969.33 208.58L-968.55 207.75L-967.77 206.91L-966.67 205.69L-965.67 204.59L-964.77 203.6L-963.96 202.7L-963.23 201.87L-962.57 201.1L-961.99 200.38L-961.46 199.68L-960.99 198.99L-960.56 198.3L-960.18 197.59L-959.82 196.85L-959.49 196.05L-959.19 195.18L-958.89 194.23L-958.59 193.19L-958.3 192.02L-957.99 190.73L-957.67 189.29L-957.46 188.31L-957.28 187.39L-957.12 186.55L-956.99 185.77L-956.88 185.06L-956.79 184.41L-956.73 183.83L-956.7 183.32L-956.69 182.87L-956.71 182.49L-956.75 182.17L-956.81 181.93L-956.9 181.75L-957.02 181.63L-957.16 181.59L-957.32 181.61L-957.51 181.69Z" id="a49NKDaAIr"></path><path d="" id="e2lIv4e3pL"></path><path d="M-705.51 427.95L-706.24 432.98L-707.24 437.94L-708.53 442.85L-710.08 447.68L-711.89 452.45L-713.97 457.13L-716.3 461.74L-718.87 466.26L-721.68 470.69L-724.73 475.03L-728.01 479.27L-731.51 483.41L-735.23 487.45L-739.16 491.37L-743.3 495.19L-747.64 498.88L-752.17 502.46L-756.9 505.91L-761.8 509.23L-766.89 512.42L-772.15 515.47L-777.57 518.38L-783.15 521.15L-788.89 523.76L-794.78 526.23L-800.81 528.53L-806.98 530.68L-813.28 532.65L-819.71 534.46L-826.26 536.1L-832.92 537.56L-839.69 538.84L-846.57 539.93L-853.54 540.83L-860.61 541.54L-867.76 542.05L-874.99 542.36L-882.3 542.46L-889.6 542.36L-896.84 542.05L-903.99 541.54L-911.05 540.83L-918.03 539.93L-924.9 538.84L-931.67 537.56L-938.34 536.1L-944.88 534.46L-951.31 532.65L-957.61 530.68L-963.78 528.53L-969.81 526.23L-975.7 523.76L-981.44 521.15L-987.02 518.38L-992.45 515.47L-997.7 512.42L-1002.79 509.23L-1007.7 505.91L-1012.42 502.46L-1016.95 498.88L-1021.29 495.19L-1025.43 491.37L-1029.36 487.45L-1033.08 483.41L-1036.58 479.27L-1039.86 475.03L-1042.91 470.69L-1045.72 466.26L-1048.3 461.74L-1050.62 457.13L-1052.7 452.45L-1054.51 447.68L-1056.07 442.85L-1057.35 437.94L-1058.36 432.98L-1059.08 427.95L-1059.52 422.86L-1059.67 417.72L-704.92 417.72L-705.07 422.86L-705.51 427.95Z" id="jczJ9kyi5"></path></defs><g><g><use xlink:href="#bewqMt498" opacity="1" fill="url(#gradienteIQnUinRL)"></use><g><use xlink:href="#bewqMt498" opacity="1" fill-opacity="0" stroke="#000000" stroke-width="1" stroke-opacity="0"></use></g></g><g><g><use xlink:href="#ddNb8sukw" opacity="1" fill="#ffffff" fill-opacity="0"></use><g><use xlink:href="#ddNb8sukw" opacity="1" fill-opacity="0" stroke="#05bf85" stroke-width="10" stroke-opacity="1"></use></g></g><g><use xlink:href="#d35plgGymu" opacity="1" fill="#05bf85" fill-opacity="1"></use></g><g><use xlink:href="#a49NKDaAIr" opacity="1" fill="#05bf85" fill-opacity="1"></use></g><g><g><use xlink:href="#e2lIv4e3pL" opacity="1" fill-opacity="0" stroke="#000000" stroke-width="1" stroke-opacity="1"></use></g></g><g><use xlink:href="#jczJ9kyi5" opacity="1" fill="#05bf85" fill-opacity="1"></use><g><use xlink:href="#jczJ9kyi5" opacity="1" fill-opacity="0" stroke="#05bf85" stroke-width="10" stroke-opacity="1"></use></g></g></g></g></svg>