<?xml version="1.0" encoding="UTF-8" standalone="no"?>
<!DOCTYPE svg PUBLIC "-//W3C//DTD SVG 1.1//EN" "http://www.w3.org/Graphics/SVG/1.1/DTD/svg11.dtd">
<svg version="1.1" xmlns="http://www.w3.org/2000/svg" xmlns:xlink="http://www.w3.org/1999/xlink" preserveAspectRatio="xMidYMid meet" viewBox="0 0 640 640" width="640" height="640"><defs><path d="M104.44 142.59L520.74 142.59L520.74 232.96L104.44 232.96L104.44 142.59Z" id="coWmCSwVd"></path><linearGradient id="gradientd2TqSKLTUo" gradientUnits="userSpaceOnUse" x1="182.22" y1="142.59" x2="485.19" y2="145.56"><stop style="stop-color: #ffffff;stop-opacity: 1" offset="0%"></stop><stop style="stop-color: #05bf85;stop-opacity: 1" offset="100%"></stop></linearGradient><path d="M-844 330C-844 492.1 -975.6 623.7 -1137.7 623.7C-1299.8 623.7 -1431.41 492.1 -1431.41 330C-1431.41 167.9 -1299.8 36.3 -1137.7 36.3C-975.6 36.3 -844 167.9 -844 330Z" id="bQ9zNlrYe"></path><path d="M-926.72 162.66L-926.16 163.07L-925.75 163.63L-925.49 164.32L-925.37 165.14L-925.39 166.1L-925.55 167.19L-925.85 168.4L-926.29 169.73L-926.86 171.18L-927.55 172.74L-928.38 174.41L-929.33 176.2L-930.41 178.09L-931.6 180.08L-932.91 182.17L-934.34 184.36L-935.88 186.64L-937.54 189.01L-939.3 191.47L-941.17 194.01L-943.14 196.63L-945.21 199.33L-947.38 202.1L-949.65 204.94L-952.01 207.85L-954.47 210.82L-957.01 213.86L-959.64 216.95L-962.36 220.1L-965.15 223.3L-968.03 226.55L-970.99 229.84L-974.02 233.18L-977.12 236.56L-980.29 239.97L-983.53 243.41L-986.83 246.89L-989.15 249.29L-986.83 251.7L-983.53 255.17L-980.29 258.62L-977.12 262.03L-974.02 265.4L-970.99 268.74L-968.03 272.04L-965.15 275.28L-962.36 278.49L-959.64 281.63L-957.01 284.73L-954.47 287.76L-952.01 290.74L-949.65 293.65L-947.38 296.49L-945.21 299.26L-943.14 301.96L-941.17 304.58L-939.3 307.12L-937.54 309.58L-935.88 311.95L-934.34 314.23L-932.91 316.41L-931.6 318.5L-930.41 320.5L-929.33 322.39L-928.38 324.17L-927.55 325.85L-926.86 327.41L-926.29 328.86L-925.85 330.19L-925.55 331.4L-925.39 332.48L-925.37 333.44L-925.49 334.27L-925.75 334.96L-926.16 335.51L-926.72 335.93L-927.41 336.19L-928.24 336.31L-929.19 336.29L-930.28 336.12L-931.49 335.82L-932.82 335.39L-934.27 334.82L-935.83 334.12L-937.51 333.3L-939.29 332.35L-941.18 331.27L-943.17 330.08L-945.26 328.76L-947.45 327.34L-949.73 325.79L-952.1 324.14L-954.56 322.38L-957.1 320.51L-959.72 318.54L-962.42 316.47L-965.19 314.29L-968.03 312.03L-970.94 309.66L-973.91 307.21L-976.95 304.67L-980.04 302.04L-983.19 299.32L-986.39 296.52L-989.64 293.65L-992.94 290.69L-996.27 287.66L-999.65 284.56L-1003.06 281.39L-1006.51 278.15L-1009.98 274.84L-1012.38 272.53L-1014.79 274.84L-1018.26 278.15L-1021.71 281.39L-1025.12 284.56L-1028.5 287.66L-1031.83 290.69L-1035.13 293.65L-1038.38 296.52L-1041.58 299.32L-1044.73 302.04L-1047.82 304.67L-1050.85 307.21L-1053.83 309.66L-1056.74 312.03L-1059.58 314.29L-1062.35 316.47L-1065.05 318.54L-1067.67 320.51L-1070.21 322.38L-1072.67 324.14L-1075.04 325.79L-1077.32 327.34L-1079.51 328.76L-1081.6 330.08L-1083.59 331.27L-1085.48 332.35L-1087.26 333.3L-1088.94 334.12L-1090.5 334.82L-1091.95 335.39L-1093.28 335.82L-1094.49 336.12L-1095.58 336.29L-1096.53 336.31L-1097.36 336.19L-1098.05 335.93L-1098.61 335.51L-1099.02 334.96L-1099.28 334.27L-1099.4 333.44L-1099.38 332.48L-1099.22 331.4L-1098.92 330.19L-1098.48 328.86L-1097.91 327.41L-1097.21 325.85L-1096.39 324.17L-1095.44 322.39L-1094.36 320.5L-1093.17 318.5L-1091.86 316.41L-1090.43 314.23L-1088.89 311.95L-1087.23 309.58L-1085.47 307.12L-1083.6 304.58L-1081.63 301.96L-1079.56 299.26L-1077.39 296.49L-1075.12 293.65L-1072.76 290.74L-1070.3 287.76L-1067.76 284.73L-1065.13 281.63L-1062.41 278.49L-1059.61 275.28L-1056.74 272.04L-1053.78 268.74L-1050.75 265.4L-1047.65 262.03L-1044.48 258.62L-1041.24 255.17L-1037.94 251.7L-1035.62 249.29L-1037.94 246.89L-1041.24 243.41L-1044.48 239.97L-1047.65 236.56L-1050.75 233.18L-1053.78 229.84L-1056.74 226.55L-1059.61 223.3L-1062.41 220.1L-1065.13 216.95L-1067.76 213.86L-1070.3 210.82L-1072.76 207.85L-1075.12 204.94L-1077.39 202.1L-1079.56 199.33L-1081.63 196.63L-1083.6 194.01L-1085.47 191.47L-1087.23 189.01L-1088.89 186.64L-1090.43 184.36L-1091.86 182.17L-1093.17 180.08L-1094.36 178.09L-1095.44 176.2L-1096.39 174.41L-1097.21 172.74L-1097.91 171.18L-1098.48 169.73L-1098.92 168.4L-1099.22 167.19L-1099.38 166.1L-1099.4 165.14L-1099.28 164.32L-1099.02 163.63L-1098.61 163.07L-1098.05 162.66L-1097.36 162.4L-1096.53 162.28L-1095.58 162.3L-1094.49 162.46L-1093.28 162.76L-1091.95 163.2L-1090.5 163.77L-1088.94 164.46L-1087.26 165.29L-1085.48 166.24L-1083.59 167.31L-1081.6 168.51L-1079.51 169.82L-1077.32 171.25L-1075.04 172.79L-1072.67 174.45L-1070.21 176.21L-1067.67 178.07L-1065.05 180.05L-1062.35 182.12L-1059.58 184.29L-1056.74 186.56L-1053.83 188.92L-1050.85 191.38L-1047.82 193.92L-1044.73 196.55L-1041.58 199.27L-1038.38 202.06L-1035.13 204.94L-1031.83 207.89L-1028.5 210.92L-1025.12 214.03L-1021.71 217.2L-1018.26 220.44L-1014.79 223.74L-1012.38 226.05L-1009.98 223.74L-1006.51 220.44L-1003.06 217.2L-999.65 214.03L-996.27 210.92L-992.94 207.89L-989.64 204.94L-986.39 202.06L-983.19 199.27L-980.04 196.55L-976.95 193.92L-973.91 191.38L-970.94 188.92L-968.03 186.56L-965.19 184.29L-962.42 182.12L-959.72 180.05L-957.1 178.07L-954.56 176.21L-952.1 174.45L-949.73 172.79L-947.45 171.25L-945.26 169.82L-943.17 168.51L-941.18 167.31L-939.29 166.24L-937.51 165.29L-935.83 164.46L-934.27 163.77L-932.82 163.2L-931.49 162.76L-930.28 162.46L-929.19 162.3L-928.24 162.28L-927.41 162.4L-926.72 162.66ZM-980.21 274.64L-980.3 274.82L-980.36 275.06L-980.4 275.38L-980.42 275.76L-980.41 276.2L-980.38 276.72L-980.32 277.3L-980.23 277.95L-980.12 278.66L-979.99 279.44L-979.83 280.28L-979.65 281.2L-979.44 282.18L-979.12 283.62L-978.81 284.91L-978.52 286.08L-978.22 287.12L-977.92 288.07L-977.62 288.94L-977.29 289.74L-976.93 290.48L-976.55 291.19L-976.12 291.88L-975.65 292.57L-975.12 293.27L-974.54 293.99L-973.88 294.76L-973.15 295.59L-972.34 296.49L-971.44 297.48L-970.44 298.58L-969.34 299.8L-968.56 300.64L-967.78 301.47L-966.99 302.27L-966.18 303.06L-965.37 303.82L-964.55 304.56L-963.72 305.28L-962.88 305.97L-962.03 306.65L-961.17 307.31L-960.3 307.94L-959.42 308.55L-958.53 309.14L-957.63 309.71L-956.72 310.26L-955.8 310.79L-954.88 311.29L-953.94 311.78L-953 312.24L-979.14 274.95L-979.38 274.73L-979.6 274.58L-979.79 274.5L-979.95 274.48L-980.09 274.52L-980.21 274.64ZM-1045.17 274.58L-1045.39 274.73L-1045.63 274.95L-1071.77 312.24L-1070.83 311.78L-1069.89 311.29L-1068.96 310.79L-1068.05 310.26L-1067.14 309.71L-1066.24 309.14L-1065.35 308.55L-1064.47 307.94L-1063.6 307.31L-1062.74 306.65L-1061.89 305.97L-1061.05 305.28L-1060.22 304.56L-1059.4 303.82L-1058.59 303.06L-1057.78 302.27L-1056.99 301.47L-1056.21 300.64L-1055.43 299.8L-1054.33 298.58L-1053.33 297.48L-1052.43 296.49L-1051.62 295.59L-1050.89 294.76L-1050.23 293.99L-1049.65 293.27L-1049.12 292.57L-1048.65 291.88L-1048.22 291.19L-1047.83 290.48L-1047.48 289.74L-1047.15 288.94L-1046.84 288.07L-1046.55 287.12L-1046.25 286.08L-1045.96 284.91L-1045.65 283.62L-1045.33 282.18L-1045.12 281.2L-1044.94 280.28L-1044.78 279.44L-1044.65 278.66L-1044.54 277.95L-1044.45 277.3L-1044.39 276.72L-1044.36 276.2L-1044.35 275.76L-1044.36 275.38L-1044.41 275.06L-1044.47 274.82L-1044.56 274.64L-1044.68 274.52L-1044.82 274.48L-1044.98 274.5L-1045.17 274.58ZM-1003.68 264.8L-1002.81 265.43L-1001.93 266.04L-1001.04 266.63L-1000.14 267.2L-999.23 267.75L-998.32 268.28L-997.39 268.78L-996.45 269.27L-995.51 269.73L-1001.22 261.58L-1004.12 264.46L-1003.68 264.8ZM-1002.66 232.07L-1002.88 232.22L-1003.12 232.44L-1029.26 269.73L-1028.32 269.27L-1027.38 268.78L-1026.45 268.28L-1025.54 267.75L-1024.63 267.2L-1023.73 266.63L-1022.84 266.04L-1021.96 265.43L-1021.09 264.8L-1020.23 264.14L-1019.38 263.46L-1018.54 262.77L-1017.71 262.05L-1016.89 261.31L-1016.08 260.55L-1015.27 259.76L-1014.48 258.96L-1013.69 258.13L-1012.92 257.29L-1011.82 256.07L-1010.82 254.97L-1009.92 253.98L-1009.11 253.08L-1008.38 252.25L-1007.72 251.48L-1007.14 250.76L-1006.61 250.06L-1006.14 249.37L-1005.71 248.68L-1005.32 247.97L-1004.97 247.23L-1004.64 246.43L-1004.33 245.56L-1004.04 244.61L-1003.74 243.57L-1003.45 242.4L-1003.14 241.11L-1002.82 239.67L-1002.61 238.69L-1002.43 237.77L-1002.27 236.93L-1002.13 236.15L-1002.03 235.43L-1001.94 234.79L-1001.88 234.21L-1001.85 233.69L-1001.84 233.25L-1001.85 232.87L-1001.89 232.55L-1001.96 232.31L-1002.05 232.13L-1002.17 232.01L-1002.31 231.96L-1002.47 231.98L-1002.66 232.07ZM-1022.72 232.13L-1022.81 232.31L-1022.87 232.55L-1022.92 232.87L-1022.93 233.25L-1022.92 233.69L-1022.89 234.21L-1022.83 234.79L-1022.74 235.43L-1022.64 236.1L-1020.55 234.02L-1020.55 234.02L-1021.65 232.44L-1021.89 232.22L-1022.11 232.07L-1022.3 231.98L-1022.46 231.96L-1022.6 232.01L-1022.72 232.13ZM-1063.1 191.75L-1063.19 191.93L-1063.25 192.17L-1063.29 192.49L-1063.31 192.87L-1063.3 193.32L-1063.27 193.83L-1063.21 194.41L-1063.12 195.06L-1063.01 195.77L-1062.88 196.55L-1062.72 197.39L-1062.54 198.31L-1062.33 199.29L-1062.01 200.73L-1061.7 202.02L-1061.41 203.19L-1061.11 204.23L-1060.81 205.18L-1060.51 206.05L-1060.18 206.85L-1059.82 207.59L-1059.44 208.3L-1059.01 208.99L-1058.54 209.68L-1058.01 210.38L-1057.43 211.1L-1056.77 211.87L-1056.04 212.7L-1055.23 213.6L-1054.33 214.59L-1053.33 215.69L-1052.23 216.91L-1051.45 217.75L-1050.67 218.58L-1049.88 219.38L-1049.07 220.17L-1048.26 220.93L-1047.44 221.67L-1046.61 222.39L-1045.77 223.09L-1044.92 223.76L-1044.06 224.42L-1043.19 225.05L-1042.31 225.66L-1041.42 226.25L-1040.52 226.82L-1039.61 227.37L-1038.69 227.9L-1037.77 228.4L-1036.83 228.89L-1035.89 229.35L-1062.03 192.06L-1062.27 191.84L-1062.49 191.69L-1062.68 191.61L-1062.84 191.59L-1062.98 191.63L-1063.1 191.75ZM-962.28 191.69L-962.5 191.84L-962.74 192.06L-988.88 229.35L-987.94 228.89L-987 228.4L-986.07 227.9L-985.16 227.37L-984.25 226.82L-983.35 226.25L-982.46 225.66L-981.58 225.05L-980.71 224.42L-979.85 223.76L-979 223.09L-978.16 222.39L-977.33 221.67L-976.51 220.93L-975.7 220.17L-974.89 219.38L-974.1 218.58L-973.32 217.75L-972.54 216.91L-971.44 215.69L-970.44 214.59L-969.54 213.6L-968.73 212.7L-968 211.87L-967.34 211.1L-966.76 210.38L-966.23 209.68L-965.76 208.99L-965.33 208.3L-964.95 207.59L-964.59 206.85L-964.26 206.05L-963.95 205.18L-963.66 204.23L-963.36 203.19L-963.07 202.02L-962.76 200.73L-962.44 199.29L-962.23 198.31L-962.05 197.39L-961.89 196.55L-961.76 195.77L-961.65 195.06L-961.56 194.41L-961.5 193.83L-961.47 193.32L-961.46 192.87L-961.47 192.49L-961.52 192.17L-961.58 191.93L-961.67 191.75L-961.79 191.63L-961.93 191.59L-962.09 191.61L-962.28 191.69Z" id="aLKolCFPA"></path><path d="M-1177.36 162.66L-1176.8 163.07L-1176.39 163.63L-1176.13 164.32L-1176.01 165.14L-1176.03 166.1L-1176.19 167.19L-1176.49 168.4L-1176.93 169.73L-1177.49 171.18L-1178.19 172.74L-1179.02 174.41L-1179.97 176.2L-1181.04 178.09L-1182.24 180.08L-1183.55 182.17L-1184.98 184.36L-1186.52 186.64L-1188.18 189.01L-1189.94 191.47L-1191.8 194.01L-1193.78 196.63L-1195.85 199.33L-1198.02 202.1L-1200.29 204.94L-1202.65 207.85L-1205.11 210.82L-1207.65 213.86L-1210.28 216.95L-1213 220.1L-1215.79 223.3L-1218.67 226.55L-1221.62 229.84L-1224.65 233.18L-1227.76 236.56L-1230.93 239.97L-1234.17 243.41L-1237.47 246.89L-1239.78 249.29L-1237.47 251.7L-1234.17 255.17L-1230.93 258.62L-1227.76 262.03L-1224.65 265.4L-1221.62 268.74L-1218.67 272.04L-1215.79 275.28L-1213 278.49L-1210.28 281.63L-1207.65 284.73L-1205.11 287.76L-1202.65 290.74L-1200.29 293.65L-1198.02 296.49L-1195.85 299.26L-1193.78 301.96L-1191.8 304.58L-1189.94 307.12L-1188.18 309.58L-1186.52 311.95L-1184.98 314.23L-1183.55 316.41L-1182.24 318.5L-1181.04 320.5L-1179.97 322.39L-1179.02 324.17L-1178.19 325.85L-1177.49 327.41L-1176.93 328.86L-1176.49 330.19L-1176.19 331.4L-1176.03 332.48L-1176.01 333.44L-1176.13 334.27L-1176.39 334.96L-1176.8 335.51L-1177.36 335.93L-1178.05 336.19L-1178.87 336.31L-1179.83 336.29L-1180.92 336.12L-1182.13 335.82L-1183.46 335.39L-1184.91 334.82L-1186.47 334.12L-1188.14 333.3L-1189.93 332.35L-1191.82 331.27L-1193.81 330.08L-1195.9 328.76L-1198.09 327.34L-1200.37 325.79L-1202.74 324.14L-1205.2 322.38L-1207.74 320.51L-1210.36 318.54L-1213.06 316.47L-1215.83 314.29L-1218.67 312.03L-1221.58 309.66L-1224.55 307.21L-1227.59 304.67L-1230.68 302.04L-1233.83 299.32L-1237.03 296.52L-1240.28 293.65L-1243.57 290.69L-1246.91 287.66L-1250.29 284.56L-1253.7 281.39L-1257.14 278.15L-1260.62 274.84L-1263.02 272.53L-1265.43 274.84L-1268.9 278.15L-1272.35 281.39L-1275.76 284.56L-1279.13 287.66L-1282.47 290.69L-1285.77 293.65L-1289.01 296.52L-1292.22 299.32L-1295.36 302.04L-1298.46 304.67L-1301.49 307.21L-1304.47 309.66L-1307.38 312.03L-1310.22 314.29L-1312.99 316.47L-1315.69 318.54L-1318.31 320.51L-1320.85 322.38L-1323.31 324.14L-1325.68 325.79L-1327.96 327.34L-1330.14 328.76L-1332.23 330.08L-1334.23 331.27L-1336.12 332.35L-1337.9 333.3L-1339.58 334.12L-1341.14 334.82L-1342.59 335.39L-1343.92 335.82L-1345.13 336.12L-1346.21 336.29L-1347.17 336.31L-1348 336.19L-1348.69 335.93L-1349.24 335.51L-1349.66 334.96L-1349.92 334.27L-1350.04 333.44L-1350.02 332.48L-1349.85 331.4L-1349.55 330.19L-1349.12 328.86L-1348.55 327.41L-1347.85 325.85L-1347.03 324.17L-1346.08 322.39L-1345 320.5L-1343.81 318.5L-1342.49 316.41L-1341.07 314.23L-1339.52 311.95L-1337.87 309.58L-1336.11 307.12L-1334.24 304.58L-1332.27 301.96L-1330.2 299.26L-1328.02 296.49L-1325.76 293.65L-1323.39 290.74L-1320.94 287.76L-1318.4 284.73L-1315.77 281.63L-1313.05 278.49L-1310.25 275.28L-1307.38 272.04L-1304.42 268.74L-1301.39 265.4L-1298.29 262.03L-1295.12 258.62L-1291.88 255.17L-1288.57 251.7L-1286.26 249.29L-1288.57 246.89L-1291.88 243.41L-1295.12 239.97L-1298.29 236.56L-1301.39 233.18L-1304.42 229.84L-1307.38 226.55L-1310.25 223.3L-1313.05 220.1L-1315.77 216.95L-1318.4 213.86L-1320.94 210.82L-1323.39 207.85L-1325.76 204.94L-1328.02 202.1L-1330.2 199.33L-1332.27 196.63L-1334.24 194.01L-1336.11 191.47L-1337.87 189.01L-1339.52 186.64L-1341.07 184.36L-1342.49 182.17L-1343.81 180.08L-1345 178.09L-1346.08 176.2L-1347.03 174.41L-1347.85 172.74L-1348.55 171.18L-1349.12 169.73L-1349.55 168.4L-1349.85 167.19L-1350.02 166.1L-1350.04 165.14L-1349.92 164.32L-1349.66 163.63L-1349.24 163.07L-1348.69 162.66L-1348 162.4L-1347.17 162.28L-1346.21 162.3L-1345.13 162.46L-1343.92 162.76L-1342.59 163.2L-1341.14 163.77L-1339.58 164.46L-1337.9 165.29L-1336.12 166.24L-1334.23 167.31L-1332.23 168.51L-1330.14 169.82L-1327.96 171.25L-1325.68 172.79L-1323.31 174.45L-1320.85 176.21L-1318.31 178.07L-1315.69 180.05L-1312.99 182.12L-1310.22 184.29L-1307.38 186.56L-1304.47 188.92L-1301.49 191.38L-1298.46 193.92L-1295.36 196.55L-1292.22 199.27L-1289.01 202.06L-1285.77 204.94L-1282.47 207.89L-1279.13 210.92L-1275.76 214.03L-1272.35 217.2L-1268.9 220.44L-1265.43 223.74L-1263.02 226.05L-1260.62 223.74L-1257.14 220.44L-1253.7 217.2L-1250.29 214.03L-1246.91 210.92L-1243.57 207.89L-1240.28 204.94L-1237.03 202.06L-1233.83 199.27L-1230.68 196.55L-1227.59 193.92L-1224.55 191.38L-1221.58 188.92L-1218.67 186.56L-1215.83 184.29L-1213.06 182.12L-1210.36 180.05L-1207.74 178.07L-1205.2 176.21L-1202.74 174.45L-1200.37 172.79L-1198.09 171.25L-1195.9 169.82L-1193.81 168.51L-1191.82 167.31L-1189.93 166.24L-1188.14 165.29L-1186.47 164.46L-1184.91 163.77L-1183.46 163.2L-1182.13 162.76L-1180.92 162.46L-1179.83 162.3L-1178.87 162.28L-1178.05 162.4L-1177.36 162.66ZM-1230.85 274.64L-1230.94 274.82L-1231 275.06L-1231.04 275.38L-1231.06 275.76L-1231.05 276.2L-1231.01 276.72L-1230.96 277.3L-1230.87 277.95L-1230.76 278.66L-1230.63 279.44L-1230.47 280.28L-1230.28 281.2L-1230.08 282.18L-1229.75 283.62L-1229.45 284.91L-1229.15 286.08L-1228.86 287.12L-1228.56 288.07L-1228.25 288.94L-1227.93 289.74L-1227.57 290.48L-1227.19 291.19L-1226.76 291.88L-1226.29 292.57L-1225.76 293.27L-1225.17 293.99L-1224.52 294.76L-1223.79 295.59L-1222.98 296.49L-1222.07 297.48L-1221.08 298.58L-1219.98 299.8L-1219.2 300.64L-1218.42 301.47L-1217.62 302.27L-1216.82 303.06L-1216.01 303.82L-1215.19 304.56L-1214.36 305.28L-1213.51 305.97L-1212.66 306.65L-1211.8 307.31L-1210.93 307.94L-1210.05 308.55L-1209.17 309.14L-1208.27 309.71L-1207.36 310.26L-1206.44 310.79L-1205.52 311.29L-1204.58 311.78L-1203.63 312.24L-1229.78 274.95L-1230.02 274.73L-1230.24 274.58L-1230.43 274.5L-1230.59 274.48L-1230.73 274.52L-1230.85 274.64ZM-1295.81 274.58L-1296.03 274.73L-1296.27 274.95L-1322.41 312.24L-1321.47 311.78L-1320.53 311.29L-1319.6 310.79L-1318.69 310.26L-1317.78 309.71L-1316.88 309.14L-1315.99 308.55L-1315.11 307.94L-1314.24 307.31L-1313.38 306.65L-1312.53 305.97L-1311.69 305.28L-1310.86 304.56L-1310.04 303.82L-1309.22 303.06L-1308.42 302.27L-1307.63 301.47L-1306.84 300.64L-1306.07 299.8L-1304.97 298.58L-1303.97 297.48L-1303.07 296.49L-1302.26 295.59L-1301.53 294.76L-1300.87 293.99L-1300.28 293.27L-1299.76 292.57L-1299.29 291.88L-1298.86 291.19L-1298.47 290.48L-1298.12 289.74L-1297.79 288.94L-1297.48 288.07L-1297.19 287.12L-1296.89 286.08L-1296.6 284.91L-1296.29 283.62L-1295.97 282.18L-1295.76 281.2L-1295.58 280.28L-1295.42 279.44L-1295.28 278.66L-1295.17 277.95L-1295.09 277.3L-1295.03 276.72L-1295 276.2L-1294.99 275.76L-1295 275.38L-1295.04 275.06L-1295.11 274.82L-1295.2 274.64L-1295.31 274.52L-1295.45 274.48L-1295.62 274.5L-1295.81 274.58ZM-1254.31 264.8L-1253.44 265.43L-1252.57 266.04L-1251.68 266.63L-1250.78 267.2L-1249.87 267.75L-1248.95 268.28L-1248.03 268.78L-1247.09 269.27L-1246.15 269.73L-1251.86 261.58L-1254.76 264.46L-1254.31 264.8ZM-1253.3 232.07L-1253.51 232.22L-1253.75 232.44L-1279.9 269.73L-1278.95 269.27L-1278.02 268.78L-1277.09 268.28L-1276.17 267.75L-1275.27 267.2L-1274.37 266.63L-1273.48 266.04L-1272.6 265.43L-1271.73 264.8L-1270.87 264.14L-1270.02 263.46L-1269.18 262.77L-1268.35 262.05L-1267.53 261.31L-1266.71 260.55L-1265.91 259.76L-1265.12 258.96L-1264.33 258.13L-1263.56 257.29L-1262.46 256.07L-1261.46 254.97L-1260.56 253.98L-1259.75 253.08L-1259.02 252.25L-1258.36 251.48L-1257.77 250.76L-1257.25 250.06L-1256.77 249.37L-1256.35 248.68L-1255.96 247.97L-1255.61 247.23L-1255.28 246.43L-1254.97 245.56L-1254.67 244.61L-1254.38 243.57L-1254.09 242.4L-1253.78 241.11L-1253.46 239.67L-1253.25 238.69L-1253.07 237.77L-1252.91 236.93L-1252.77 236.15L-1252.66 235.43L-1252.58 234.79L-1252.52 234.21L-1252.49 233.69L-1252.48 233.25L-1252.49 232.87L-1252.53 232.55L-1252.6 232.31L-1252.69 232.13L-1252.8 232.01L-1252.94 231.96L-1253.11 231.98L-1253.3 232.07ZM-1273.36 232.13L-1273.45 232.31L-1273.51 232.55L-1273.55 232.87L-1273.57 233.25L-1273.56 233.69L-1273.53 234.21L-1273.47 234.79L-1273.38 235.43L-1273.28 236.1L-1271.19 234.02L-1271.18 234.02L-1272.29 232.44L-1272.53 232.22L-1272.75 232.07L-1272.94 231.98L-1273.1 231.96L-1273.24 232.01L-1273.36 232.13ZM-1313.74 191.75L-1313.83 191.93L-1313.89 192.17L-1313.93 192.49L-1313.95 192.87L-1313.94 193.32L-1313.9 193.83L-1313.84 194.41L-1313.76 195.06L-1313.65 195.77L-1313.52 196.55L-1313.36 197.39L-1313.17 198.31L-1312.97 199.29L-1312.64 200.73L-1312.34 202.02L-1312.04 203.19L-1311.75 204.23L-1311.45 205.18L-1311.14 206.05L-1310.82 206.85L-1310.46 207.59L-1310.08 208.3L-1309.65 208.99L-1309.18 209.68L-1308.65 210.38L-1308.06 211.1L-1307.41 211.87L-1306.68 212.7L-1305.87 213.6L-1304.96 214.59L-1303.97 215.69L-1302.87 216.91L-1302.09 217.75L-1301.31 218.58L-1300.51 219.38L-1299.71 220.17L-1298.9 220.93L-1298.08 221.67L-1297.25 222.39L-1296.4 223.09L-1295.55 223.76L-1294.69 224.42L-1293.82 225.05L-1292.94 225.66L-1292.06 226.25L-1291.16 226.82L-1290.25 227.37L-1289.33 227.9L-1288.41 228.4L-1287.47 228.89L-1286.52 229.35L-1312.67 192.06L-1312.91 191.84L-1313.13 191.69L-1313.32 191.61L-1313.48 191.59L-1313.62 191.63L-1313.74 191.75ZM-1212.92 191.69L-1213.14 191.84L-1213.38 192.06L-1239.52 229.35L-1238.58 228.89L-1237.64 228.4L-1236.71 227.9L-1235.8 227.37L-1234.89 226.82L-1233.99 226.25L-1233.1 225.66L-1232.22 225.05L-1231.35 224.42L-1230.49 223.76L-1229.64 223.09L-1228.8 222.39L-1227.97 221.67L-1227.15 220.93L-1226.33 220.17L-1225.53 219.38L-1224.74 218.58L-1223.95 217.75L-1223.18 216.91L-1222.08 215.69L-1221.08 214.59L-1220.18 213.6L-1219.37 212.7L-1218.64 211.87L-1217.98 211.1L-1217.39 210.38L-1216.87 209.68L-1216.4 208.99L-1215.97 208.3L-1215.58 207.59L-1215.23 206.85L-1214.9 206.05L-1214.59 205.18L-1214.3 204.23L-1214 203.19L-1213.71 202.02L-1213.4 200.73L-1213.08 199.29L-1212.87 198.31L-1212.69 197.39L-1212.53 196.55L-1212.39 195.77L-1212.29 195.06L-1212.2 194.41L-1212.14 193.83L-1212.11 193.32L-1212.1 192.87L-1212.11 192.49L-1212.15 192.17L-1212.22 191.93L-1212.31 191.75L-1212.42 191.63L-1212.57 191.59L-1212.73 191.61L-1212.92 191.69Z" id="a2IB8QQkVx"></path><path d="" id="c1tmiKqVSZ"></path><path d="M-960.92 437.95L-961.64 442.98L-962.65 447.94L-963.93 452.85L-965.49 457.68L-967.3 462.45L-969.38 467.13L-971.7 471.74L-974.28 476.26L-977.09 480.69L-980.14 485.03L-983.42 489.27L-986.92 493.41L-990.64 497.45L-994.57 501.37L-998.71 505.19L-1003.05 508.88L-1007.58 512.46L-1012.3 515.91L-1017.21 519.23L-1022.3 522.42L-1027.55 525.47L-1032.98 528.38L-1038.56 531.15L-1044.3 533.76L-1050.19 536.23L-1056.22 538.53L-1062.39 540.68L-1068.69 542.65L-1075.12 544.46L-1081.66 546.1L-1088.33 547.56L-1095.1 548.84L-1101.97 549.93L-1108.95 550.83L-1116.01 551.54L-1123.16 552.05L-1130.4 552.36L-1137.7 552.46L-1145.01 552.36L-1152.24 552.05L-1159.39 551.54L-1166.46 550.83L-1173.43 549.93L-1180.31 548.84L-1187.08 547.56L-1193.74 546.1L-1200.29 544.46L-1206.72 542.65L-1213.02 540.68L-1219.19 538.53L-1225.22 536.23L-1231.11 533.76L-1236.85 531.15L-1242.43 528.38L-1247.85 525.47L-1253.11 522.42L-1258.2 519.23L-1263.1 515.91L-1267.83 512.46L-1272.36 508.88L-1276.7 505.19L-1280.84 501.37L-1284.77 497.45L-1288.49 493.41L-1291.99 489.27L-1295.27 485.03L-1298.32 480.69L-1301.13 476.26L-1303.7 471.74L-1306.03 467.13L-1308.11 462.45L-1309.92 457.68L-1311.47 452.85L-1312.76 447.94L-1313.76 442.98L-1314.49 437.95L-1314.93 432.86L-1315.08 427.72L-960.33 427.72L-960.48 432.86L-960.92 437.95Z" id="b1lHMEkgl7"></path><path d="M-834 340C-834 502.1 -965.6 633.7 -1127.7 633.7C-1289.8 633.7 -1421.41 502.1 -1421.41 340C-1421.41 177.9 -1289.8 46.3 -1127.7 46.3C-965.6 46.3 -834 177.9 -834 340Z" id="g1TOfezSuW"></path><path d="M-916.72 172.66L-916.16 173.07L-915.75 173.63L-915.49 174.32L-915.37 175.14L-915.39 176.1L-915.55 177.19L-915.85 178.4L-916.29 179.73L-916.86 181.18L-917.55 182.74L-918.38 184.41L-919.33 186.2L-920.41 188.09L-921.6 190.08L-922.91 192.17L-924.34 194.36L-925.88 196.64L-927.54 199.01L-929.3 201.47L-931.17 204.01L-933.14 206.63L-935.21 209.33L-937.38 212.1L-939.65 214.94L-942.01 217.85L-944.47 220.82L-947.01 223.86L-949.64 226.95L-952.36 230.1L-955.15 233.3L-958.03 236.55L-960.99 239.84L-964.02 243.18L-967.12 246.56L-970.29 249.97L-973.53 253.41L-976.83 256.89L-979.15 259.29L-976.83 261.7L-973.53 265.17L-970.29 268.62L-967.12 272.03L-964.02 275.4L-960.99 278.74L-958.03 282.04L-955.15 285.28L-952.36 288.49L-949.64 291.63L-947.01 294.73L-944.47 297.76L-942.01 300.74L-939.65 303.65L-937.38 306.49L-935.21 309.26L-933.14 311.96L-931.17 314.58L-929.3 317.12L-927.54 319.58L-925.88 321.95L-924.34 324.23L-922.91 326.41L-921.6 328.5L-920.41 330.5L-919.33 332.39L-918.38 334.17L-917.55 335.85L-916.86 337.41L-916.29 338.86L-915.85 340.19L-915.55 341.4L-915.39 342.48L-915.37 343.44L-915.49 344.27L-915.75 344.96L-916.16 345.51L-916.72 345.93L-917.41 346.19L-918.24 346.31L-919.19 346.29L-920.28 346.12L-921.49 345.82L-922.82 345.39L-924.27 344.82L-925.83 344.12L-927.51 343.3L-929.29 342.35L-931.18 341.27L-933.17 340.08L-935.26 338.76L-937.45 337.34L-939.73 335.79L-942.1 334.14L-944.56 332.38L-947.1 330.51L-949.72 328.54L-952.42 326.47L-955.19 324.29L-958.03 322.03L-960.94 319.66L-963.91 317.21L-966.95 314.67L-970.04 312.04L-973.19 309.32L-976.39 306.52L-979.64 303.65L-982.94 300.69L-986.27 297.66L-989.65 294.56L-993.06 291.39L-996.51 288.15L-999.98 284.84L-1002.38 282.53L-1004.79 284.84L-1008.26 288.15L-1011.71 291.39L-1015.12 294.56L-1018.5 297.66L-1021.83 300.69L-1025.13 303.65L-1028.38 306.52L-1031.58 309.32L-1034.73 312.04L-1037.82 314.67L-1040.85 317.21L-1043.83 319.66L-1046.74 322.03L-1049.58 324.29L-1052.35 326.47L-1055.05 328.54L-1057.67 330.51L-1060.21 332.38L-1062.67 334.14L-1065.04 335.79L-1067.32 337.34L-1069.51 338.76L-1071.6 340.08L-1073.59 341.27L-1075.48 342.35L-1077.26 343.3L-1078.94 344.12L-1080.5 344.82L-1081.95 345.39L-1083.28 345.82L-1084.49 346.12L-1085.58 346.29L-1086.53 346.31L-1087.36 346.19L-1088.05 345.93L-1088.61 345.51L-1089.02 344.96L-1089.28 344.27L-1089.4 343.44L-1089.38 342.48L-1089.22 341.4L-1088.92 340.19L-1088.48 338.86L-1087.91 337.41L-1087.21 335.85L-1086.39 334.17L-1085.44 332.39L-1084.36 330.5L-1083.17 328.5L-1081.86 326.41L-1080.43 324.23L-1078.89 321.95L-1077.23 319.58L-1075.47 317.12L-1073.6 314.58L-1071.63 311.96L-1069.56 309.26L-1067.39 306.49L-1065.12 303.65L-1062.76 300.74L-1060.3 297.76L-1057.76 294.73L-1055.13 291.63L-1052.41 288.49L-1049.61 285.28L-1046.74 282.04L-1043.78 278.74L-1040.75 275.4L-1037.65 272.03L-1034.48 268.62L-1031.24 265.17L-1027.94 261.7L-1025.62 259.29L-1027.94 256.89L-1031.24 253.41L-1034.48 249.97L-1037.65 246.56L-1040.75 243.18L-1043.78 239.84L-1046.74 236.55L-1049.61 233.3L-1052.41 230.1L-1055.13 226.95L-1057.76 223.86L-1060.3 220.82L-1062.76 217.85L-1065.12 214.94L-1067.39 212.1L-1069.56 209.33L-1071.63 206.63L-1073.6 204.01L-1075.47 201.47L-1077.23 199.01L-1078.89 196.64L-1080.43 194.36L-1081.86 192.17L-1083.17 190.08L-1084.36 188.09L-1085.44 186.2L-1086.39 184.41L-1087.21 182.74L-1087.91 181.18L-1088.48 179.73L-1088.92 178.4L-1089.22 177.19L-1089.38 176.1L-1089.4 175.14L-1089.28 174.32L-1089.02 173.63L-1088.61 173.07L-1088.05 172.66L-1087.36 172.4L-1086.53 172.28L-1085.58 172.3L-1084.49 172.46L-1083.28 172.76L-1081.95 173.2L-1080.5 173.77L-1078.94 174.46L-1077.26 175.29L-1075.48 176.24L-1073.59 177.31L-1071.6 178.51L-1069.51 179.82L-1067.32 181.25L-1065.04 182.79L-1062.67 184.45L-1060.21 186.21L-1057.67 188.07L-1055.05 190.05L-1052.35 192.12L-1049.58 194.29L-1046.74 196.56L-1043.83 198.92L-1040.85 201.38L-1037.82 203.92L-1034.73 206.55L-1031.58 209.27L-1028.38 212.06L-1025.13 214.94L-1021.83 217.89L-1018.5 220.92L-1015.12 224.03L-1011.71 227.2L-1008.26 230.44L-1004.79 233.74L-1002.38 236.05L-999.98 233.74L-996.51 230.44L-993.06 227.2L-989.65 224.03L-986.27 220.92L-982.94 217.89L-979.64 214.94L-976.39 212.06L-973.19 209.27L-970.04 206.55L-966.95 203.92L-963.91 201.38L-960.94 198.92L-958.03 196.56L-955.19 194.29L-952.42 192.12L-949.72 190.05L-947.1 188.07L-944.56 186.21L-942.1 184.45L-939.73 182.79L-937.45 181.25L-935.26 179.82L-933.17 178.51L-931.18 177.31L-929.29 176.24L-927.51 175.29L-925.83 174.46L-924.27 173.77L-922.82 173.2L-921.49 172.76L-920.28 172.46L-919.19 172.3L-918.24 172.28L-917.41 172.4L-916.72 172.66ZM-970.21 284.64L-970.3 284.82L-970.36 285.06L-970.4 285.38L-970.42 285.76L-970.41 286.2L-970.38 286.72L-970.32 287.3L-970.23 287.95L-970.12 288.66L-969.99 289.44L-969.83 290.28L-969.65 291.2L-969.44 292.18L-969.12 293.62L-968.81 294.91L-968.52 296.08L-968.22 297.12L-967.92 298.07L-967.62 298.94L-967.29 299.74L-966.93 300.48L-966.55 301.19L-966.12 301.88L-965.65 302.57L-965.12 303.27L-964.54 303.99L-963.88 304.76L-963.15 305.59L-962.34 306.49L-961.44 307.48L-960.44 308.58L-959.34 309.8L-958.56 310.64L-957.78 311.47L-956.99 312.27L-956.18 313.06L-955.37 313.82L-954.55 314.56L-953.72 315.28L-952.88 315.97L-952.03 316.65L-951.17 317.31L-950.3 317.94L-949.42 318.55L-948.53 319.14L-947.63 319.71L-946.72 320.26L-945.8 320.79L-944.88 321.29L-943.94 321.78L-943 322.24L-969.14 284.95L-969.38 284.73L-969.6 284.58L-969.79 284.5L-969.95 284.48L-970.09 284.52L-970.21 284.64ZM-1035.17 284.58L-1035.39 284.73L-1035.63 284.95L-1061.77 322.24L-1060.83 321.78L-1059.89 321.29L-1058.96 320.79L-1058.05 320.26L-1057.14 319.71L-1056.24 319.14L-1055.35 318.55L-1054.47 317.94L-1053.6 317.31L-1052.74 316.65L-1051.89 315.97L-1051.05 315.28L-1050.22 314.56L-1049.4 313.82L-1048.59 313.06L-1047.78 312.27L-1046.99 311.47L-1046.21 310.64L-1045.43 309.8L-1044.33 308.58L-1043.33 307.48L-1042.43 306.49L-1041.62 305.59L-1040.89 304.76L-1040.23 303.99L-1039.65 303.27L-1039.12 302.57L-1038.65 301.88L-1038.22 301.19L-1037.83 300.48L-1037.48 299.74L-1037.15 298.94L-1036.84 298.07L-1036.55 297.12L-1036.25 296.08L-1035.96 294.91L-1035.65 293.62L-1035.33 292.18L-1035.12 291.2L-1034.94 290.28L-1034.78 289.44L-1034.65 288.66L-1034.54 287.95L-1034.45 287.3L-1034.39 286.72L-1034.36 286.2L-1034.35 285.76L-1034.36 285.38L-1034.41 285.06L-1034.47 284.82L-1034.56 284.64L-1034.68 284.52L-1034.82 284.48L-1034.98 284.5L-1035.17 284.58ZM-993.68 274.8L-992.81 275.43L-991.93 276.04L-991.04 276.63L-990.14 277.2L-989.23 277.75L-988.32 278.28L-987.39 278.78L-986.45 279.27L-985.51 279.73L-991.22 271.58L-994.12 274.46L-993.68 274.8ZM-992.66 242.07L-992.88 242.22L-993.12 242.44L-1019.26 279.73L-1018.32 279.27L-1017.38 278.78L-1016.45 278.28L-1015.54 277.75L-1014.63 277.2L-1013.73 276.63L-1012.84 276.04L-1011.96 275.43L-1011.09 274.8L-1010.23 274.14L-1009.38 273.46L-1008.54 272.77L-1007.71 272.05L-1006.89 271.31L-1006.08 270.55L-1005.27 269.76L-1004.48 268.96L-1003.69 268.13L-1002.92 267.29L-1001.82 266.07L-1000.82 264.97L-999.92 263.98L-999.11 263.08L-998.38 262.25L-997.72 261.48L-997.14 260.76L-996.61 260.06L-996.14 259.37L-995.71 258.68L-995.32 257.97L-994.97 257.23L-994.64 256.43L-994.33 255.56L-994.04 254.61L-993.74 253.57L-993.45 252.4L-993.14 251.11L-992.82 249.67L-992.61 248.69L-992.43 247.77L-992.27 246.93L-992.13 246.15L-992.03 245.43L-991.94 244.79L-991.88 244.21L-991.85 243.69L-991.84 243.25L-991.85 242.87L-991.89 242.55L-991.96 242.31L-992.05 242.13L-992.17 242.01L-992.31 241.96L-992.47 241.98L-992.66 242.07ZM-1012.72 242.13L-1012.81 242.31L-1012.87 242.55L-1012.92 242.87L-1012.93 243.25L-1012.92 243.69L-1012.89 244.21L-1012.83 244.79L-1012.74 245.43L-1012.64 246.1L-1010.55 244.02L-1010.55 244.02L-1011.65 242.44L-1011.89 242.22L-1012.11 242.07L-1012.3 241.98L-1012.46 241.96L-1012.6 242.01L-1012.72 242.13ZM-1053.1 201.75L-1053.19 201.93L-1053.25 202.17L-1053.29 202.49L-1053.31 202.87L-1053.3 203.32L-1053.27 203.83L-1053.21 204.41L-1053.12 205.06L-1053.01 205.77L-1052.88 206.55L-1052.72 207.39L-1052.54 208.31L-1052.33 209.29L-1052.01 210.73L-1051.7 212.02L-1051.41 213.19L-1051.11 214.23L-1050.81 215.18L-1050.51 216.05L-1050.18 216.85L-1049.82 217.59L-1049.44 218.3L-1049.01 218.99L-1048.54 219.68L-1048.01 220.38L-1047.43 221.1L-1046.77 221.87L-1046.04 222.7L-1045.23 223.6L-1044.33 224.59L-1043.33 225.69L-1042.23 226.91L-1041.45 227.75L-1040.67 228.58L-1039.88 229.38L-1039.07 230.17L-1038.26 230.93L-1037.44 231.67L-1036.61 232.39L-1035.77 233.09L-1034.92 233.76L-1034.06 234.42L-1033.19 235.05L-1032.31 235.66L-1031.42 236.25L-1030.52 236.82L-1029.61 237.37L-1028.69 237.9L-1027.77 238.4L-1026.83 238.89L-1025.89 239.35L-1052.03 202.06L-1052.27 201.84L-1052.49 201.69L-1052.68 201.61L-1052.84 201.59L-1052.98 201.63L-1053.1 201.75ZM-952.28 201.69L-952.5 201.84L-952.74 202.06L-978.88 239.35L-977.94 238.89L-977 238.4L-976.07 237.9L-975.16 237.37L-974.25 236.82L-973.35 236.25L-972.46 235.66L-971.58 235.05L-970.71 234.42L-969.85 233.76L-969 233.09L-968.16 232.39L-967.33 231.67L-966.51 230.93L-965.7 230.17L-964.89 229.38L-964.1 228.58L-963.32 227.75L-962.54 226.91L-961.44 225.69L-960.44 224.59L-959.54 223.6L-958.73 222.7L-958 221.87L-957.34 221.1L-956.76 220.38L-956.23 219.68L-955.76 218.99L-955.33 218.3L-954.95 217.59L-954.59 216.85L-954.26 216.05L-953.95 215.18L-953.66 214.23L-953.36 213.19L-953.07 212.02L-952.76 210.73L-952.44 209.29L-952.23 208.31L-952.05 207.39L-951.89 206.55L-951.76 205.77L-951.65 205.06L-951.56 204.41L-951.5 203.83L-951.47 203.32L-951.46 202.87L-951.47 202.49L-951.52 202.17L-951.58 201.93L-951.67 201.75L-951.79 201.63L-951.93 201.59L-952.09 201.61L-952.28 201.69Z" id="cosDGBWTU"></path><path d="M-1167.36 172.66L-1166.8 173.07L-1166.39 173.63L-1166.13 174.32L-1166.01 175.14L-1166.03 176.1L-1166.19 177.19L-1166.49 178.4L-1166.93 179.73L-1167.49 181.18L-1168.19 182.74L-1169.02 184.41L-1169.97 186.2L-1171.04 188.09L-1172.24 190.08L-1173.55 192.17L-1174.98 194.36L-1176.52 196.64L-1178.18 199.01L-1179.94 201.47L-1181.8 204.01L-1183.78 206.63L-1185.85 209.33L-1188.02 212.1L-1190.29 214.94L-1192.65 217.85L-1195.11 220.82L-1197.65 223.86L-1200.28 226.95L-1203 230.1L-1205.79 233.3L-1208.67 236.55L-1211.62 239.84L-1214.65 243.18L-1217.76 246.56L-1220.93 249.97L-1224.17 253.41L-1227.47 256.89L-1229.78 259.29L-1227.47 261.7L-1224.17 265.17L-1220.93 268.62L-1217.76 272.03L-1214.65 275.4L-1211.62 278.74L-1208.67 282.04L-1205.79 285.28L-1203 288.49L-1200.28 291.63L-1197.65 294.73L-1195.11 297.76L-1192.65 300.74L-1190.29 303.65L-1188.02 306.49L-1185.85 309.26L-1183.78 311.96L-1181.8 314.58L-1179.94 317.12L-1178.18 319.58L-1176.52 321.95L-1174.98 324.23L-1173.55 326.41L-1172.24 328.5L-1171.04 330.5L-1169.97 332.39L-1169.02 334.17L-1168.19 335.85L-1167.49 337.41L-1166.93 338.86L-1166.49 340.19L-1166.19 341.4L-1166.03 342.48L-1166.01 343.44L-1166.13 344.27L-1166.39 344.96L-1166.8 345.51L-1167.36 345.93L-1168.05 346.19L-1168.87 346.31L-1169.83 346.29L-1170.92 346.12L-1172.13 345.82L-1173.46 345.39L-1174.91 344.82L-1176.47 344.12L-1178.14 343.3L-1179.93 342.35L-1181.82 341.27L-1183.81 340.08L-1185.9 338.76L-1188.09 337.34L-1190.37 335.79L-1192.74 334.14L-1195.2 332.38L-1197.74 330.51L-1200.36 328.54L-1203.06 326.47L-1205.83 324.29L-1208.67 322.03L-1211.58 319.66L-1214.55 317.21L-1217.59 314.67L-1220.68 312.04L-1223.83 309.32L-1227.03 306.52L-1230.28 303.65L-1233.57 300.69L-1236.91 297.66L-1240.29 294.56L-1243.7 291.39L-1247.14 288.15L-1250.62 284.84L-1253.02 282.53L-1255.43 284.84L-1258.9 288.15L-1262.35 291.39L-1265.76 294.56L-1269.13 297.66L-1272.47 300.69L-1275.77 303.65L-1279.01 306.52L-1282.22 309.32L-1285.36 312.04L-1288.46 314.67L-1291.49 317.21L-1294.47 319.66L-1297.38 322.03L-1300.22 324.29L-1302.99 326.47L-1305.69 328.54L-1308.31 330.51L-1310.85 332.38L-1313.31 334.14L-1315.68 335.79L-1317.96 337.34L-1320.14 338.76L-1322.23 340.08L-1324.23 341.27L-1326.12 342.35L-1327.9 343.3L-1329.58 344.12L-1331.14 344.82L-1332.59 345.39L-1333.92 345.82L-1335.13 346.12L-1336.21 346.29L-1337.17 346.31L-1338 346.19L-1338.69 345.93L-1339.24 345.51L-1339.66 344.96L-1339.92 344.27L-1340.04 343.44L-1340.02 342.48L-1339.85 341.4L-1339.55 340.19L-1339.12 338.86L-1338.55 337.41L-1337.85 335.85L-1337.03 334.17L-1336.08 332.39L-1335 330.5L-1333.81 328.5L-1332.49 326.41L-1331.07 324.23L-1329.52 321.95L-1327.87 319.58L-1326.11 317.12L-1324.24 314.58L-1322.27 311.96L-1320.2 309.26L-1318.02 306.49L-1315.76 303.65L-1313.39 300.74L-1310.94 297.76L-1308.4 294.73L-1305.77 291.63L-1303.05 288.49L-1300.25 285.28L-1297.38 282.04L-1294.42 278.74L-1291.39 275.4L-1288.29 272.03L-1285.12 268.62L-1281.88 265.17L-1278.57 261.7L-1276.26 259.29L-1278.57 256.89L-1281.88 253.41L-1285.12 249.97L-1288.29 246.56L-1291.39 243.18L-1294.42 239.84L-1297.38 236.55L-1300.25 233.3L-1303.05 230.1L-1305.77 226.95L-1308.4 223.86L-1310.94 220.82L-1313.39 217.85L-1315.76 214.94L-1318.02 212.1L-1320.2 209.33L-1322.27 206.63L-1324.24 204.01L-1326.11 201.47L-1327.87 199.01L-1329.52 196.64L-1331.07 194.36L-1332.49 192.17L-1333.81 190.08L-1335 188.09L-1336.08 186.2L-1337.03 184.41L-1337.85 182.74L-1338.55 181.18L-1339.12 179.73L-1339.55 178.4L-1339.85 177.19L-1340.02 176.1L-1340.04 175.14L-1339.92 174.32L-1339.66 173.63L-1339.24 173.07L-1338.69 172.66L-1338 172.4L-1337.17 172.28L-1336.21 172.3L-1335.13 172.46L-1333.92 172.76L-1332.59 173.2L-1331.14 173.77L-1329.58 174.46L-1327.9 175.29L-1326.12 176.24L-1324.23 177.31L-1322.23 178.51L-1320.14 179.82L-1317.96 181.25L-1315.68 182.79L-1313.31 184.45L-1310.85 186.21L-1308.31 188.07L-1305.69 190.05L-1302.99 192.12L-1300.22 194.29L-1297.38 196.56L-1294.47 198.92L-1291.49 201.38L-1288.46 203.92L-1285.36 206.55L-1282.22 209.27L-1279.01 212.06L-1275.77 214.94L-1272.47 217.89L-1269.13 220.92L-1265.76 224.03L-1262.35 227.2L-1258.9 230.44L-1255.43 233.74L-1253.02 236.05L-1250.62 233.74L-1247.14 230.44L-1243.7 227.2L-1240.29 224.03L-1236.91 220.92L-1233.57 217.89L-1230.28 214.94L-1227.03 212.06L-1223.83 209.27L-1220.68 206.55L-1217.59 203.92L-1214.55 201.38L-1211.58 198.92L-1208.67 196.56L-1205.83 194.29L-1203.06 192.12L-1200.36 190.05L-1197.74 188.07L-1195.2 186.21L-1192.74 184.45L-1190.37 182.79L-1188.09 181.25L-1185.9 179.82L-1183.81 178.51L-1181.82 177.31L-1179.93 176.24L-1178.14 175.29L-1176.47 174.46L-1174.91 173.77L-1173.46 173.2L-1172.13 172.76L-1170.92 172.46L-1169.83 172.3L-1168.87 172.28L-1168.05 172.4L-1167.36 172.66ZM-1220.85 284.64L-1220.94 284.82L-1221 285.06L-1221.04 285.38L-1221.06 285.76L-1221.05 286.2L-1221.01 286.72L-1220.96 287.3L-1220.87 287.95L-1220.76 288.66L-1220.63 289.44L-1220.47 290.28L-1220.28 291.2L-1220.08 292.18L-1219.75 293.62L-1219.45 294.91L-1219.15 296.08L-1218.86 297.12L-1218.56 298.07L-1218.25 298.94L-1217.93 299.74L-1217.57 300.48L-1217.19 301.19L-1216.76 301.88L-1216.29 302.57L-1215.76 303.27L-1215.17 303.99L-1214.52 304.76L-1213.79 305.59L-1212.98 306.49L-1212.07 307.48L-1211.08 308.58L-1209.98 309.8L-1209.2 310.64L-1208.42 311.47L-1207.62 312.27L-1206.82 313.06L-1206.01 313.82L-1205.19 314.56L-1204.36 315.28L-1203.51 315.97L-1202.66 316.65L-1201.8 317.31L-1200.93 317.94L-1200.05 318.55L-1199.17 319.14L-1198.27 319.71L-1197.36 320.26L-1196.44 320.79L-1195.52 321.29L-1194.58 321.78L-1193.63 322.24L-1219.78 284.95L-1220.02 284.73L-1220.24 284.58L-1220.43 284.5L-1220.59 284.48L-1220.73 284.52L-1220.85 284.64ZM-1285.81 284.58L-1286.03 284.73L-1286.27 284.95L-1312.41 322.24L-1311.47 321.78L-1310.53 321.29L-1309.6 320.79L-1308.69 320.26L-1307.78 319.71L-1306.88 319.14L-1305.99 318.55L-1305.11 317.94L-1304.24 317.31L-1303.38 316.65L-1302.53 315.97L-1301.69 315.28L-1300.86 314.56L-1300.04 313.82L-1299.22 313.06L-1298.42 312.27L-1297.63 311.47L-1296.84 310.64L-1296.07 309.8L-1294.97 308.58L-1293.97 307.48L-1293.07 306.49L-1292.26 305.59L-1291.53 304.76L-1290.87 303.99L-1290.28 303.27L-1289.76 302.57L-1289.29 301.88L-1288.86 301.19L-1288.47 300.48L-1288.12 299.74L-1287.79 298.94L-1287.48 298.07L-1287.19 297.12L-1286.89 296.08L-1286.6 294.91L-1286.29 293.62L-1285.97 292.18L-1285.76 291.2L-1285.58 290.28L-1285.42 289.44L-1285.28 288.66L-1285.17 287.95L-1285.09 287.3L-1285.03 286.72L-1285 286.2L-1284.99 285.76L-1285 285.38L-1285.04 285.06L-1285.11 284.82L-1285.2 284.64L-1285.31 284.52L-1285.45 284.48L-1285.62 284.5L-1285.81 284.58ZM-1244.31 274.8L-1243.44 275.43L-1242.57 276.04L-1241.68 276.63L-1240.78 277.2L-1239.87 277.75L-1238.95 278.28L-1238.03 278.78L-1237.09 279.27L-1236.15 279.73L-1241.86 271.58L-1244.76 274.46L-1244.31 274.8ZM-1243.3 242.07L-1243.51 242.22L-1243.75 242.44L-1269.9 279.73L-1268.95 279.27L-1268.02 278.78L-1267.09 278.28L-1266.17 277.75L-1265.27 277.2L-1264.37 276.63L-1263.48 276.04L-1262.6 275.43L-1261.73 274.8L-1260.87 274.14L-1260.02 273.46L-1259.18 272.77L-1258.35 272.05L-1257.53 271.31L-1256.71 270.55L-1255.91 269.76L-1255.12 268.96L-1254.33 268.13L-1253.56 267.29L-1252.46 266.07L-1251.46 264.97L-1250.56 263.98L-1249.75 263.08L-1249.02 262.25L-1248.36 261.48L-1247.77 260.76L-1247.25 260.06L-1246.77 259.37L-1246.35 258.68L-1245.96 257.97L-1245.61 257.23L-1245.28 256.43L-1244.97 255.56L-1244.67 254.61L-1244.38 253.57L-1244.09 252.4L-1243.78 251.11L-1243.46 249.67L-1243.25 248.69L-1243.07 247.77L-1242.91 246.93L-1242.77 246.15L-1242.66 245.43L-1242.58 244.79L-1242.52 244.21L-1242.49 243.69L-1242.48 243.25L-1242.49 242.87L-1242.53 242.55L-1242.6 242.31L-1242.69 242.13L-1242.8 242.01L-1242.94 241.96L-1243.11 241.98L-1243.3 242.07ZM-1263.36 242.13L-1263.45 242.31L-1263.51 242.55L-1263.55 242.87L-1263.57 243.25L-1263.56 243.69L-1263.53 244.21L-1263.47 244.79L-1263.38 245.43L-1263.28 246.1L-1261.19 244.02L-1261.18 244.02L-1262.29 242.44L-1262.53 242.22L-1262.75 242.07L-1262.94 241.98L-1263.1 241.96L-1263.24 242.01L-1263.36 242.13ZM-1303.74 201.75L-1303.83 201.93L-1303.89 202.17L-1303.93 202.49L-1303.95 202.87L-1303.94 203.32L-1303.9 203.83L-1303.84 204.41L-1303.76 205.06L-1303.65 205.77L-1303.52 206.55L-1303.36 207.39L-1303.17 208.31L-1302.97 209.29L-1302.64 210.73L-1302.34 212.02L-1302.04 213.19L-1301.75 214.23L-1301.45 215.18L-1301.14 216.05L-1300.82 216.85L-1300.46 217.59L-1300.08 218.3L-1299.65 218.99L-1299.18 219.68L-1298.65 220.38L-1298.06 221.1L-1297.41 221.87L-1296.68 222.7L-1295.87 223.6L-1294.96 224.59L-1293.97 225.69L-1292.87 226.91L-1292.09 227.75L-1291.31 228.58L-1290.51 229.38L-1289.71 230.17L-1288.9 230.93L-1288.08 231.67L-1287.25 232.39L-1286.4 233.09L-1285.55 233.76L-1284.69 234.42L-1283.82 235.05L-1282.94 235.66L-1282.06 236.25L-1281.16 236.82L-1280.25 237.37L-1279.33 237.9L-1278.41 238.4L-1277.47 238.89L-1276.52 239.35L-1302.67 202.06L-1302.91 201.84L-1303.13 201.69L-1303.32 201.61L-1303.48 201.59L-1303.62 201.63L-1303.74 201.75ZM-1202.92 201.69L-1203.14 201.84L-1203.38 202.06L-1229.52 239.35L-1228.58 238.89L-1227.64 238.4L-1226.71 237.9L-1225.8 237.37L-1224.89 236.82L-1223.99 236.25L-1223.1 235.66L-1222.22 235.05L-1221.35 234.42L-1220.49 233.76L-1219.64 233.09L-1218.8 232.39L-1217.97 231.67L-1217.15 230.93L-1216.33 230.17L-1215.53 229.38L-1214.74 228.58L-1213.95 227.75L-1213.18 226.91L-1212.08 225.69L-1211.08 224.59L-1210.18 223.6L-1209.37 222.7L-1208.64 221.87L-1207.98 221.1L-1207.39 220.38L-1206.87 219.68L-1206.4 218.99L-1205.97 218.3L-1205.58 217.59L-1205.23 216.85L-1204.9 216.05L-1204.59 215.18L-1204.3 214.23L-1204 213.19L-1203.71 212.02L-1203.4 210.73L-1203.08 209.29L-1202.87 208.31L-1202.69 207.39L-1202.53 206.55L-1202.39 205.77L-1202.29 205.06L-1202.2 204.41L-1202.14 203.83L-1202.11 203.32L-1202.1 202.87L-1202.11 202.49L-1202.15 202.17L-1202.22 201.93L-1202.31 201.75L-1202.42 201.63L-1202.57 201.59L-1202.73 201.61L-1202.92 201.69Z" id="d5f4tOHclt"></path><path d="" id="l14zpnz1jw"></path><path d="M-950.92 447.95L-951.64 452.98L-952.65 457.94L-953.93 462.85L-955.49 467.68L-957.3 472.45L-959.38 477.13L-961.7 481.74L-964.28 486.26L-967.09 490.69L-970.14 495.03L-973.42 499.27L-976.92 503.41L-980.64 507.45L-984.57 511.37L-988.71 515.19L-993.05 518.88L-997.58 522.46L-1002.3 525.91L-1007.21 529.23L-1012.3 532.42L-1017.55 535.47L-1022.98 538.38L-1028.56 541.15L-1034.3 543.76L-1040.19 546.23L-1046.22 548.53L-1052.39 550.68L-1058.69 552.65L-1065.12 554.46L-1071.66 556.1L-1078.33 557.56L-1085.1 558.84L-1091.97 559.93L-1098.95 560.83L-1106.01 561.54L-1113.16 562.05L-1120.4 562.36L-1127.7 562.46L-1135.01 562.36L-1142.24 562.05L-1149.39 561.54L-1156.46 560.83L-1163.43 559.93L-1170.31 558.84L-1177.08 557.56L-1183.74 556.1L-1190.29 554.46L-1196.72 552.65L-1203.02 550.68L-1209.19 548.53L-1215.22 546.23L-1221.11 543.76L-1226.85 541.15L-1232.43 538.38L-1237.85 535.47L-1243.11 532.42L-1248.2 529.23L-1253.1 525.91L-1257.83 522.46L-1262.36 518.88L-1266.7 515.19L-1270.84 511.37L-1274.77 507.45L-1278.49 503.41L-1281.99 499.27L-1285.27 495.03L-1288.32 490.69L-1291.13 486.26L-1293.7 481.74L-1296.03 477.13L-1298.11 472.45L-1299.92 467.68L-1301.47 462.85L-1302.76 457.94L-1303.76 452.98L-1304.49 447.95L-1304.93 442.86L-1305.08 437.72L-950.33 437.72L-950.48 442.86L-950.92 447.95Z" id="a7aZUgbN16"></path><path d="M-824 350C-824 512.1 -955.6 643.7 -1117.7 643.7C-1279.8 643.7 -1411.41 512.1 -1411.41 350C-1411.41 187.9 -1279.8 56.3 -1117.7 56.3C-955.6 56.3 -824 187.9 -824 350Z" id="a4AOnsQaT"></path><path d="M-906.72 182.66L-906.16 183.07L-905.75 183.63L-905.49 184.32L-905.37 185.14L-905.39 186.1L-905.55 187.19L-905.85 188.4L-906.29 189.73L-906.86 191.18L-907.55 192.74L-908.38 194.41L-909.33 196.2L-910.41 198.09L-911.6 200.08L-912.91 202.17L-914.34 204.36L-915.88 206.64L-917.54 209.01L-919.3 211.47L-921.17 214.01L-923.14 216.63L-925.21 219.33L-927.38 222.1L-929.65 224.94L-932.01 227.85L-934.47 230.82L-937.01 233.86L-939.64 236.95L-942.36 240.1L-945.15 243.3L-948.03 246.55L-950.99 249.84L-954.02 253.18L-957.12 256.56L-960.29 259.97L-963.53 263.41L-966.83 266.89L-969.15 269.29L-966.83 271.7L-963.53 275.17L-960.29 278.62L-957.12 282.03L-954.02 285.4L-950.99 288.74L-948.03 292.04L-945.15 295.28L-942.36 298.49L-939.64 301.63L-937.01 304.73L-934.47 307.76L-932.01 310.74L-929.65 313.65L-927.38 316.49L-925.21 319.26L-923.14 321.96L-921.17 324.58L-919.3 327.12L-917.54 329.58L-915.88 331.95L-914.34 334.23L-912.91 336.41L-911.6 338.5L-910.41 340.5L-909.33 342.39L-908.38 344.17L-907.55 345.85L-906.86 347.41L-906.29 348.86L-905.85 350.19L-905.55 351.4L-905.39 352.48L-905.37 353.44L-905.49 354.27L-905.75 354.96L-906.16 355.51L-906.72 355.93L-907.41 356.19L-908.24 356.31L-909.19 356.29L-910.28 356.12L-911.49 355.82L-912.82 355.39L-914.27 354.82L-915.83 354.12L-917.51 353.3L-919.29 352.35L-921.18 351.27L-923.17 350.08L-925.26 348.76L-927.45 347.34L-929.73 345.79L-932.1 344.14L-934.56 342.38L-937.1 340.51L-939.72 338.54L-942.42 336.47L-945.19 334.29L-948.03 332.03L-950.94 329.66L-953.91 327.21L-956.95 324.67L-960.04 322.04L-963.19 319.32L-966.39 316.52L-969.64 313.65L-972.94 310.69L-976.27 307.66L-979.65 304.56L-983.06 301.39L-986.51 298.15L-989.98 294.84L-992.38 292.53L-994.79 294.84L-998.26 298.15L-1001.71 301.39L-1005.12 304.56L-1008.5 307.66L-1011.83 310.69L-1015.13 313.65L-1018.38 316.52L-1021.58 319.32L-1024.73 322.04L-1027.82 324.67L-1030.85 327.21L-1033.83 329.66L-1036.74 332.03L-1039.58 334.29L-1042.35 336.47L-1045.05 338.54L-1047.67 340.51L-1050.21 342.38L-1052.67 344.14L-1055.04 345.79L-1057.32 347.34L-1059.51 348.76L-1061.6 350.08L-1063.59 351.27L-1065.48 352.35L-1067.26 353.3L-1068.94 354.12L-1070.5 354.82L-1071.95 355.39L-1073.28 355.82L-1074.49 356.12L-1075.58 356.29L-1076.53 356.31L-1077.36 356.19L-1078.05 355.93L-1078.61 355.51L-1079.02 354.96L-1079.28 354.27L-1079.4 353.44L-1079.38 352.48L-1079.22 351.4L-1078.92 350.19L-1078.48 348.86L-1077.91 347.41L-1077.21 345.85L-1076.39 344.17L-1075.44 342.39L-1074.36 340.5L-1073.17 338.5L-1071.86 336.41L-1070.43 334.23L-1068.89 331.95L-1067.23 329.58L-1065.47 327.12L-1063.6 324.58L-1061.63 321.96L-1059.56 319.26L-1057.39 316.49L-1055.12 313.65L-1052.76 310.74L-1050.3 307.76L-1047.76 304.73L-1045.13 301.63L-1042.41 298.49L-1039.61 295.28L-1036.74 292.04L-1033.78 288.74L-1030.75 285.4L-1027.65 282.03L-1024.48 278.62L-1021.24 275.17L-1017.94 271.7L-1015.62 269.29L-1017.94 266.89L-1021.24 263.41L-1024.48 259.97L-1027.65 256.56L-1030.75 253.18L-1033.78 249.84L-1036.74 246.55L-1039.61 243.3L-1042.41 240.1L-1045.13 236.95L-1047.76 233.86L-1050.3 230.82L-1052.76 227.85L-1055.12 224.94L-1057.39 222.1L-1059.56 219.33L-1061.63 216.63L-1063.6 214.01L-1065.47 211.47L-1067.23 209.01L-1068.89 206.64L-1070.43 204.36L-1071.86 202.17L-1073.17 200.08L-1074.36 198.09L-1075.44 196.2L-1076.39 194.41L-1077.21 192.74L-1077.91 191.18L-1078.48 189.73L-1078.92 188.4L-1079.22 187.19L-1079.38 186.1L-1079.4 185.14L-1079.28 184.32L-1079.02 183.63L-1078.61 183.07L-1078.05 182.66L-1077.36 182.4L-1076.53 182.28L-1075.58 182.3L-1074.49 182.46L-1073.28 182.76L-1071.95 183.2L-1070.5 183.77L-1068.94 184.46L-1067.26 185.29L-1065.48 186.24L-1063.59 187.31L-1061.6 188.51L-1059.51 189.82L-1057.32 191.25L-1055.04 192.79L-1052.67 194.45L-1050.21 196.21L-1047.67 198.07L-1045.05 200.05L-1042.35 202.12L-1039.58 204.29L-1036.74 206.56L-1033.83 208.92L-1030.85 211.38L-1027.82 213.92L-1024.73 216.55L-1021.58 219.27L-1018.38 222.06L-1015.13 224.94L-1011.83 227.89L-1008.5 230.92L-1005.12 234.03L-1001.71 237.2L-998.26 240.44L-994.79 243.74L-992.38 246.05L-989.98 243.74L-986.51 240.44L-983.06 237.2L-979.65 234.03L-976.27 230.92L-972.94 227.89L-969.64 224.94L-966.39 222.06L-963.19 219.27L-960.04 216.55L-956.95 213.92L-953.91 211.38L-950.94 208.92L-948.03 206.56L-945.19 204.29L-942.42 202.12L-939.72 200.05L-937.1 198.07L-934.56 196.21L-932.1 194.45L-929.73 192.79L-927.45 191.25L-925.26 189.82L-923.17 188.51L-921.18 187.31L-919.29 186.24L-917.51 185.29L-915.83 184.46L-914.27 183.77L-912.82 183.2L-911.49 182.76L-910.28 182.46L-909.19 182.3L-908.24 182.28L-907.41 182.4L-906.72 182.66ZM-960.21 294.64L-960.3 294.82L-960.36 295.06L-960.4 295.38L-960.42 295.76L-960.41 296.2L-960.38 296.72L-960.32 297.3L-960.23 297.95L-960.12 298.66L-959.99 299.44L-959.83 300.28L-959.65 301.2L-959.44 302.18L-959.12 303.62L-958.81 304.91L-958.52 306.08L-958.22 307.12L-957.92 308.07L-957.62 308.94L-957.29 309.74L-956.93 310.48L-956.55 311.19L-956.12 311.88L-955.65 312.57L-955.12 313.27L-954.54 313.99L-953.88 314.76L-953.15 315.59L-952.34 316.49L-951.44 317.48L-950.44 318.58L-949.34 319.8L-948.56 320.64L-947.78 321.47L-946.99 322.27L-946.18 323.06L-945.37 323.82L-944.55 324.56L-943.72 325.28L-942.88 325.97L-942.03 326.65L-941.17 327.31L-940.3 327.94L-939.42 328.55L-938.53 329.14L-937.63 329.71L-936.72 330.26L-935.8 330.79L-934.88 331.29L-933.94 331.78L-933 332.24L-959.14 294.95L-959.38 294.73L-959.6 294.58L-959.79 294.5L-959.95 294.48L-960.09 294.52L-960.21 294.64ZM-1025.17 294.58L-1025.39 294.73L-1025.63 294.95L-1051.77 332.24L-1050.83 331.78L-1049.89 331.29L-1048.96 330.79L-1048.05 330.26L-1047.14 329.71L-1046.24 329.14L-1045.35 328.55L-1044.47 327.94L-1043.6 327.31L-1042.74 326.65L-1041.89 325.97L-1041.05 325.28L-1040.22 324.56L-1039.4 323.82L-1038.59 323.06L-1037.78 322.27L-1036.99 321.47L-1036.21 320.64L-1035.43 319.8L-1034.33 318.58L-1033.33 317.48L-1032.43 316.49L-1031.62 315.59L-1030.89 314.76L-1030.23 313.99L-1029.65 313.27L-1029.12 312.57L-1028.65 311.88L-1028.22 311.19L-1027.83 310.48L-1027.48 309.74L-1027.15 308.94L-1026.84 308.07L-1026.55 307.12L-1026.25 306.08L-1025.96 304.91L-1025.65 303.62L-1025.33 302.18L-1025.12 301.2L-1024.94 300.28L-1024.78 299.44L-1024.65 298.66L-1024.54 297.95L-1024.45 297.3L-1024.39 296.72L-1024.36 296.2L-1024.35 295.76L-1024.36 295.38L-1024.41 295.06L-1024.47 294.82L-1024.56 294.64L-1024.68 294.52L-1024.82 294.48L-1024.98 294.5L-1025.17 294.58ZM-983.68 284.8L-982.81 285.43L-981.93 286.04L-981.04 286.63L-980.14 287.2L-979.23 287.75L-978.32 288.28L-977.39 288.78L-976.45 289.27L-975.51 289.73L-981.22 281.58L-984.12 284.46L-983.68 284.8ZM-982.66 252.07L-982.88 252.22L-983.12 252.44L-1009.26 289.73L-1008.32 289.27L-1007.38 288.78L-1006.45 288.28L-1005.54 287.75L-1004.63 287.2L-1003.73 286.63L-1002.84 286.04L-1001.96 285.43L-1001.09 284.8L-1000.23 284.14L-999.38 283.46L-998.54 282.77L-997.71 282.05L-996.89 281.31L-996.08 280.55L-995.27 279.76L-994.48 278.96L-993.69 278.13L-992.92 277.29L-991.82 276.07L-990.82 274.97L-989.92 273.98L-989.11 273.08L-988.38 272.25L-987.72 271.48L-987.14 270.76L-986.61 270.06L-986.14 269.37L-985.71 268.68L-985.32 267.97L-984.97 267.23L-984.64 266.43L-984.33 265.56L-984.04 264.61L-983.74 263.57L-983.45 262.4L-983.14 261.11L-982.82 259.67L-982.61 258.69L-982.43 257.77L-982.27 256.93L-982.13 256.15L-982.03 255.43L-981.94 254.79L-981.88 254.21L-981.85 253.69L-981.84 253.25L-981.85 252.87L-981.89 252.55L-981.96 252.31L-982.05 252.13L-982.17 252.01L-982.31 251.96L-982.47 251.98L-982.66 252.07ZM-1002.72 252.13L-1002.81 252.31L-1002.87 252.55L-1002.92 252.87L-1002.93 253.25L-1002.92 253.69L-1002.89 254.21L-1002.83 254.79L-1002.74 255.43L-1002.64 256.1L-1000.55 254.02L-1000.55 254.02L-1001.65 252.44L-1001.89 252.22L-1002.11 252.07L-1002.3 251.98L-1002.46 251.96L-1002.6 252.01L-1002.72 252.13ZM-1043.1 211.75L-1043.19 211.93L-1043.25 212.17L-1043.29 212.49L-1043.31 212.87L-1043.3 213.32L-1043.27 213.83L-1043.21 214.41L-1043.12 215.06L-1043.01 215.77L-1042.88 216.55L-1042.72 217.39L-1042.54 218.31L-1042.33 219.29L-1042.01 220.73L-1041.7 222.02L-1041.41 223.19L-1041.11 224.23L-1040.81 225.18L-1040.51 226.05L-1040.18 226.85L-1039.82 227.59L-1039.44 228.3L-1039.01 228.99L-1038.54 229.68L-1038.01 230.38L-1037.43 231.1L-1036.77 231.87L-1036.04 232.7L-1035.23 233.6L-1034.33 234.59L-1033.33 235.69L-1032.23 236.91L-1031.45 237.75L-1030.67 238.58L-1029.88 239.38L-1029.07 240.17L-1028.26 240.93L-1027.44 241.67L-1026.61 242.39L-1025.77 243.09L-1024.92 243.76L-1024.06 244.42L-1023.19 245.05L-1022.31 245.66L-1021.42 246.25L-1020.52 246.82L-1019.61 247.37L-1018.69 247.9L-1017.77 248.4L-1016.83 248.89L-1015.89 249.35L-1042.03 212.06L-1042.27 211.84L-1042.49 211.69L-1042.68 211.61L-1042.84 211.59L-1042.98 211.63L-1043.1 211.75ZM-942.28 211.69L-942.5 211.84L-942.74 212.06L-968.88 249.35L-967.94 248.89L-967 248.4L-966.07 247.9L-965.16 247.37L-964.25 246.82L-963.35 246.25L-962.46 245.66L-961.58 245.05L-960.71 244.42L-959.85 243.76L-959 243.09L-958.16 242.39L-957.33 241.67L-956.51 240.93L-955.7 240.17L-954.89 239.38L-954.1 238.58L-953.32 237.75L-952.54 236.91L-951.44 235.69L-950.44 234.59L-949.54 233.6L-948.73 232.7L-948 231.87L-947.34 231.1L-946.76 230.38L-946.23 229.68L-945.76 228.99L-945.33 228.3L-944.95 227.59L-944.59 226.85L-944.26 226.05L-943.95 225.18L-943.66 224.23L-943.36 223.19L-943.07 222.02L-942.76 220.73L-942.44 219.29L-942.23 218.31L-942.05 217.39L-941.89 216.55L-941.76 215.77L-941.65 215.06L-941.56 214.41L-941.5 213.83L-941.47 213.32L-941.46 212.87L-941.47 212.49L-941.52 212.17L-941.58 211.93L-941.67 211.75L-941.79 211.63L-941.93 211.59L-942.09 211.61L-942.28 211.69Z" id="e3miRKTxlf"></path><path d="M-1157.36 182.66L-1156.8 183.07L-1156.39 183.63L-1156.13 184.32L-1156.01 185.14L-1156.03 186.1L-1156.19 187.19L-1156.49 188.4L-1156.93 189.73L-1157.49 191.18L-1158.19 192.74L-1159.02 194.41L-1159.97 196.2L-1161.04 198.09L-1162.24 200.08L-1163.55 202.17L-1164.98 204.36L-1166.52 206.64L-1168.18 209.01L-1169.94 211.47L-1171.8 214.01L-1173.78 216.63L-1175.85 219.33L-1178.02 222.1L-1180.29 224.94L-1182.65 227.85L-1185.11 230.82L-1187.65 233.86L-1190.28 236.95L-1193 240.1L-1195.79 243.3L-1198.67 246.55L-1201.62 249.84L-1204.65 253.18L-1207.76 256.56L-1210.93 259.97L-1214.17 263.41L-1217.47 266.89L-1219.78 269.29L-1217.47 271.7L-1214.17 275.17L-1210.93 278.62L-1207.76 282.03L-1204.65 285.4L-1201.62 288.74L-1198.67 292.04L-1195.79 295.28L-1193 298.49L-1190.28 301.63L-1187.65 304.73L-1185.11 307.76L-1182.65 310.74L-1180.29 313.65L-1178.02 316.49L-1175.85 319.26L-1173.78 321.96L-1171.8 324.58L-1169.94 327.12L-1168.18 329.58L-1166.52 331.95L-1164.98 334.23L-1163.55 336.41L-1162.24 338.5L-1161.04 340.5L-1159.97 342.39L-1159.02 344.17L-1158.19 345.85L-1157.49 347.41L-1156.93 348.86L-1156.49 350.19L-1156.19 351.4L-1156.03 352.48L-1156.01 353.44L-1156.13 354.27L-1156.39 354.96L-1156.8 355.51L-1157.36 355.93L-1158.05 356.19L-1158.87 356.31L-1159.83 356.29L-1160.92 356.12L-1162.13 355.82L-1163.46 355.39L-1164.91 354.82L-1166.47 354.12L-1168.14 353.3L-1169.93 352.35L-1171.82 351.27L-1173.81 350.08L-1175.9 348.76L-1178.09 347.34L-1180.37 345.79L-1182.74 344.14L-1185.2 342.38L-1187.74 340.51L-1190.36 338.54L-1193.06 336.47L-1195.83 334.29L-1198.67 332.03L-1201.58 329.66L-1204.55 327.21L-1207.59 324.67L-1210.68 322.04L-1213.83 319.32L-1217.03 316.52L-1220.28 313.65L-1223.57 310.69L-1226.91 307.66L-1230.29 304.56L-1233.7 301.39L-1237.14 298.15L-1240.62 294.84L-1243.02 292.53L-1245.43 294.84L-1248.9 298.15L-1252.35 301.39L-1255.76 304.56L-1259.13 307.66L-1262.47 310.69L-1265.77 313.65L-1269.01 316.52L-1272.22 319.32L-1275.36 322.04L-1278.46 324.67L-1281.49 327.21L-1284.47 329.66L-1287.38 332.03L-1290.22 334.29L-1292.99 336.47L-1295.69 338.54L-1298.31 340.51L-1300.85 342.38L-1303.31 344.14L-1305.68 345.79L-1307.96 347.34L-1310.14 348.76L-1312.23 350.08L-1314.23 351.27L-1316.12 352.35L-1317.9 353.3L-1319.58 354.12L-1321.14 354.82L-1322.59 355.39L-1323.92 355.82L-1325.13 356.12L-1326.21 356.29L-1327.17 356.31L-1328 356.19L-1328.69 355.93L-1329.24 355.51L-1329.66 354.96L-1329.92 354.27L-1330.04 353.44L-1330.02 352.48L-1329.85 351.4L-1329.55 350.19L-1329.12 348.86L-1328.55 347.41L-1327.85 345.85L-1327.03 344.17L-1326.08 342.39L-1325 340.5L-1323.81 338.5L-1322.49 336.41L-1321.07 334.23L-1319.52 331.95L-1317.87 329.58L-1316.11 327.12L-1314.24 324.58L-1312.27 321.96L-1310.2 319.26L-1308.02 316.49L-1305.76 313.65L-1303.39 310.74L-1300.94 307.76L-1298.4 304.73L-1295.77 301.63L-1293.05 298.49L-1290.25 295.28L-1287.38 292.04L-1284.42 288.74L-1281.39 285.4L-1278.29 282.03L-1275.12 278.62L-1271.88 275.17L-1268.57 271.7L-1266.26 269.29L-1268.57 266.89L-1271.88 263.41L-1275.12 259.97L-1278.29 256.56L-1281.39 253.18L-1284.42 249.84L-1287.38 246.55L-1290.25 243.3L-1293.05 240.1L-1295.77 236.95L-1298.4 233.86L-1300.94 230.82L-1303.39 227.85L-1305.76 224.94L-1308.02 222.1L-1310.2 219.33L-1312.27 216.63L-1314.24 214.01L-1316.11 211.47L-1317.87 209.01L-1319.52 206.64L-1321.07 204.36L-1322.49 202.17L-1323.81 200.08L-1325 198.09L-1326.08 196.2L-1327.03 194.41L-1327.85 192.74L-1328.55 191.18L-1329.12 189.73L-1329.55 188.4L-1329.85 187.19L-1330.02 186.1L-1330.04 185.14L-1329.92 184.32L-1329.66 183.63L-1329.24 183.07L-1328.69 182.66L-1328 182.4L-1327.17 182.28L-1326.21 182.3L-1325.13 182.46L-1323.92 182.76L-1322.59 183.2L-1321.14 183.77L-1319.58 184.46L-1317.9 185.29L-1316.12 186.24L-1314.23 187.31L-1312.23 188.51L-1310.14 189.82L-1307.96 191.25L-1305.68 192.79L-1303.31 194.45L-1300.85 196.21L-1298.31 198.07L-1295.69 200.05L-1292.99 202.12L-1290.22 204.29L-1287.38 206.56L-1284.47 208.92L-1281.49 211.38L-1278.46 213.92L-1275.36 216.55L-1272.22 219.27L-1269.01 222.06L-1265.77 224.94L-1262.47 227.89L-1259.13 230.92L-1255.76 234.03L-1252.35 237.2L-1248.9 240.44L-1245.43 243.74L-1243.02 246.05L-1240.62 243.74L-1237.14 240.44L-1233.7 237.2L-1230.29 234.03L-1226.91 230.92L-1223.57 227.89L-1220.28 224.94L-1217.03 222.06L-1213.83 219.27L-1210.68 216.55L-1207.59 213.92L-1204.55 211.38L-1201.58 208.92L-1198.67 206.56L-1195.83 204.29L-1193.06 202.12L-1190.36 200.05L-1187.74 198.07L-1185.2 196.21L-1182.74 194.45L-1180.37 192.79L-1178.09 191.25L-1175.9 189.82L-1173.81 188.51L-1171.82 187.31L-1169.93 186.24L-1168.14 185.29L-1166.47 184.46L-1164.91 183.77L-1163.46 183.2L-1162.13 182.76L-1160.92 182.46L-1159.83 182.3L-1158.87 182.28L-1158.05 182.4L-1157.36 182.66ZM-1210.85 294.64L-1210.94 294.82L-1211 295.06L-1211.04 295.38L-1211.06 295.76L-1211.05 296.2L-1211.01 296.72L-1210.96 297.3L-1210.87 297.95L-1210.76 298.66L-1210.63 299.44L-1210.47 300.28L-1210.28 301.2L-1210.08 302.18L-1209.75 303.62L-1209.45 304.91L-1209.15 306.08L-1208.86 307.12L-1208.56 308.07L-1208.25 308.94L-1207.93 309.74L-1207.57 310.48L-1207.19 311.19L-1206.76 311.88L-1206.29 312.57L-1205.76 313.27L-1205.17 313.99L-1204.52 314.76L-1203.79 315.59L-1202.98 316.49L-1202.07 317.48L-1201.08 318.58L-1199.98 319.8L-1199.2 320.64L-1198.42 321.47L-1197.62 322.27L-1196.82 323.06L-1196.01 323.82L-1195.19 324.56L-1194.36 325.28L-1193.51 325.97L-1192.66 326.65L-1191.8 327.31L-1190.93 327.94L-1190.05 328.55L-1189.17 329.14L-1188.27 329.71L-1187.36 330.26L-1186.44 330.79L-1185.52 331.29L-1184.58 331.78L-1183.63 332.24L-1209.78 294.95L-1210.02 294.73L-1210.24 294.58L-1210.43 294.5L-1210.59 294.48L-1210.73 294.52L-1210.85 294.64ZM-1275.81 294.58L-1276.03 294.73L-1276.27 294.95L-1302.41 332.24L-1301.47 331.78L-1300.53 331.29L-1299.6 330.79L-1298.69 330.26L-1297.78 329.71L-1296.88 329.14L-1295.99 328.55L-1295.11 327.94L-1294.24 327.31L-1293.38 326.65L-1292.53 325.97L-1291.69 325.28L-1290.86 324.56L-1290.04 323.82L-1289.22 323.06L-1288.42 322.27L-1287.63 321.47L-1286.84 320.64L-1286.07 319.8L-1284.97 318.58L-1283.97 317.48L-1283.07 316.49L-1282.26 315.59L-1281.53 314.76L-1280.87 313.99L-1280.28 313.27L-1279.76 312.57L-1279.29 311.88L-1278.86 311.19L-1278.47 310.48L-1278.12 309.74L-1277.79 308.94L-1277.48 308.07L-1277.19 307.12L-1276.89 306.08L-1276.6 304.91L-1276.29 303.62L-1275.97 302.18L-1275.76 301.2L-1275.58 300.28L-1275.42 299.44L-1275.28 298.66L-1275.17 297.95L-1275.09 297.3L-1275.03 296.72L-1275 296.2L-1274.99 295.76L-1275 295.38L-1275.04 295.06L-1275.11 294.82L-1275.2 294.64L-1275.31 294.52L-1275.45 294.48L-1275.62 294.5L-1275.81 294.58ZM-1234.31 284.8L-1233.44 285.43L-1232.57 286.04L-1231.68 286.63L-1230.78 287.2L-1229.87 287.75L-1228.95 288.28L-1228.03 288.78L-1227.09 289.27L-1226.15 289.73L-1231.86 281.58L-1234.76 284.46L-1234.31 284.8ZM-1233.3 252.07L-1233.51 252.22L-1233.75 252.44L-1259.9 289.73L-1258.95 289.27L-1258.02 288.78L-1257.09 288.28L-1256.17 287.75L-1255.27 287.2L-1254.37 286.63L-1253.48 286.04L-1252.6 285.43L-1251.73 284.8L-1250.87 284.14L-1250.02 283.46L-1249.18 282.77L-1248.35 282.05L-1247.53 281.31L-1246.71 280.55L-1245.91 279.76L-1245.12 278.96L-1244.33 278.13L-1243.56 277.29L-1242.46 276.07L-1241.46 274.97L-1240.56 273.98L-1239.75 273.08L-1239.02 272.25L-1238.36 271.48L-1237.77 270.76L-1237.25 270.06L-1236.77 269.37L-1236.35 268.68L-1235.96 267.97L-1235.61 267.23L-1235.28 266.43L-1234.97 265.56L-1234.67 264.61L-1234.38 263.57L-1234.09 262.4L-1233.78 261.11L-1233.46 259.67L-1233.25 258.69L-1233.07 257.77L-1232.91 256.93L-1232.77 256.15L-1232.66 255.43L-1232.58 254.79L-1232.52 254.21L-1232.49 253.69L-1232.48 253.25L-1232.49 252.87L-1232.53 252.55L-1232.6 252.31L-1232.69 252.13L-1232.8 252.01L-1232.94 251.96L-1233.11 251.98L-1233.3 252.07ZM-1253.36 252.13L-1253.45 252.31L-1253.51 252.55L-1253.55 252.87L-1253.57 253.25L-1253.56 253.69L-1253.53 254.21L-1253.47 254.79L-1253.38 255.43L-1253.28 256.1L-1251.19 254.02L-1251.18 254.02L-1252.29 252.44L-1252.53 252.22L-1252.75 252.07L-1252.94 251.98L-1253.1 251.96L-1253.24 252.01L-1253.36 252.13ZM-1293.74 211.75L-1293.83 211.93L-1293.89 212.17L-1293.93 212.49L-1293.95 212.87L-1293.94 213.32L-1293.9 213.83L-1293.84 214.41L-1293.76 215.06L-1293.65 215.77L-1293.52 216.55L-1293.36 217.39L-1293.17 218.31L-1292.97 219.29L-1292.64 220.73L-1292.34 222.02L-1292.04 223.19L-1291.75 224.23L-1291.45 225.18L-1291.14 226.05L-1290.82 226.85L-1290.46 227.59L-1290.08 228.3L-1289.65 228.99L-1289.18 229.68L-1288.65 230.38L-1288.06 231.1L-1287.41 231.87L-1286.68 232.7L-1285.87 233.6L-1284.96 234.59L-1283.97 235.69L-1282.87 236.91L-1282.09 237.75L-1281.31 238.58L-1280.51 239.38L-1279.71 240.17L-1278.9 240.93L-1278.08 241.67L-1277.25 242.39L-1276.4 243.09L-1275.55 243.76L-1274.69 244.42L-1273.82 245.05L-1272.94 245.66L-1272.06 246.25L-1271.16 246.82L-1270.25 247.37L-1269.33 247.9L-1268.41 248.4L-1267.47 248.89L-1266.52 249.35L-1292.67 212.06L-1292.91 211.84L-1293.13 211.69L-1293.32 211.61L-1293.48 211.59L-1293.62 211.63L-1293.74 211.75ZM-1192.92 211.69L-1193.14 211.84L-1193.38 212.06L-1219.52 249.35L-1218.58 248.89L-1217.64 248.4L-1216.71 247.9L-1215.8 247.37L-1214.89 246.82L-1213.99 246.25L-1213.1 245.66L-1212.22 245.05L-1211.35 244.42L-1210.49 243.76L-1209.64 243.09L-1208.8 242.39L-1207.97 241.67L-1207.15 240.93L-1206.33 240.17L-1205.53 239.38L-1204.74 238.58L-1203.95 237.75L-1203.18 236.91L-1202.08 235.69L-1201.08 234.59L-1200.18 233.6L-1199.37 232.7L-1198.64 231.87L-1197.98 231.1L-1197.39 230.38L-1196.87 229.68L-1196.4 228.99L-1195.97 228.3L-1195.58 227.59L-1195.23 226.85L-1194.9 226.05L-1194.59 225.18L-1194.3 224.23L-1194 223.19L-1193.71 222.02L-1193.4 220.73L-1193.08 219.29L-1192.87 218.31L-1192.69 217.39L-1192.53 216.55L-1192.39 215.77L-1192.29 215.06L-1192.2 214.41L-1192.14 213.83L-1192.11 213.32L-1192.1 212.87L-1192.11 212.49L-1192.15 212.17L-1192.22 211.93L-1192.31 211.75L-1192.42 211.63L-1192.57 211.59L-1192.73 211.61L-1192.92 211.69Z" id="a5cCSognh"></path><path d="" id="a1mtpnQdSZ"></path><path d="M-940.92 457.95L-941.64 462.98L-942.65 467.94L-943.93 472.85L-945.49 477.68L-947.3 482.45L-949.38 487.13L-951.7 491.74L-954.28 496.26L-957.09 500.69L-960.14 505.03L-963.42 509.27L-966.92 513.41L-970.64 517.45L-974.57 521.37L-978.71 525.19L-983.05 528.88L-987.58 532.46L-992.3 535.91L-997.21 539.23L-1002.3 542.42L-1007.55 545.47L-1012.98 548.38L-1018.56 551.15L-1024.3 553.76L-1030.19 556.23L-1036.22 558.53L-1042.39 560.68L-1048.69 562.65L-1055.12 564.46L-1061.66 566.1L-1068.33 567.56L-1075.1 568.84L-1081.97 569.93L-1088.95 570.83L-1096.01 571.54L-1103.16 572.05L-1110.4 572.36L-1117.7 572.46L-1125.01 572.36L-1132.24 572.05L-1139.39 571.54L-1146.46 570.83L-1153.43 569.93L-1160.31 568.84L-1167.08 567.56L-1173.74 566.1L-1180.29 564.46L-1186.72 562.65L-1193.02 560.68L-1199.19 558.53L-1205.22 556.23L-1211.11 553.76L-1216.85 551.15L-1222.43 548.38L-1227.85 545.47L-1233.11 542.42L-1238.2 539.23L-1243.1 535.91L-1247.83 532.46L-1252.36 528.88L-1256.7 525.19L-1260.84 521.37L-1264.77 517.45L-1268.49 513.41L-1271.99 509.27L-1275.27 505.03L-1278.32 500.69L-1281.13 496.26L-1283.7 491.74L-1286.03 487.13L-1288.11 482.45L-1289.92 477.68L-1291.47 472.85L-1292.76 467.94L-1293.76 462.98L-1294.49 457.95L-1294.93 452.86L-1295.08 447.72L-940.33 447.72L-940.48 452.86L-940.92 457.95Z" id="b17WN9DSjy"></path></defs><g><g><g><use xlink:href="#coWmCSwVd" opacity="1" fill="url(#gradientd2TqSKLTUo)"></use></g><g><g><use xlink:href="#bQ9zNlrYe" opacity="1" fill="#ffffff" fill-opacity="0"></use><g><use xlink:href="#bQ9zNlrYe" opacity="1" fill-opacity="0" stroke="#05bf85" stroke-width="10" stroke-opacity="1"></use></g></g><g><use xlink:href="#aLKolCFPA" opacity="1" fill="#05bf85" fill-opacity="1"></use></g><g><use xlink:href="#a2IB8QQkVx" opacity="1" fill="#05bf85" fill-opacity="1"></use></g><g><g><use xlink:href="#c1tmiKqVSZ" opacity="1" fill-opacity="0" stroke="#000000" stroke-width="1" stroke-opacity="1"></use></g></g><g><use xlink:href="#b1lHMEkgl7" opacity="1" fill="#05bf85" fill-opacity="1"></use><g><use xlink:href="#b1lHMEkgl7" opacity="1" fill-opacity="0" stroke="#05bf85" stroke-width="10" stroke-opacity="1"></use></g></g></g><g><g><use xlink:href="#g1TOfezSuW" opacity="1" fill="#ffffff" fill-opacity="0"></use><g><use xlink:href="#g1TOfezSuW" opacity="1" fill-opacity="0" stroke="#05bf85" stroke-width="10" stroke-opacity="1"></use></g></g><g><use xlink:href="#cosDGBWTU" opacity="1" fill="#05bf85" fill-opacity="1"></use></g><g><use xlink:href="#d5f4tOHclt" opacity="1" fill="#05bf85" fill-opacity="1"></use></g><g><g><use xlink:href="#l14zpnz1jw" opacity="1" fill-opacity="0" stroke="#000000" stroke-width="1" stroke-opacity="1"></use></g></g><g><use xlink:href="#a7aZUgbN16" opacity="1" fill="#05bf85" fill-opacity="1"></use><g><use xlink:href="#a7aZUgbN16" opacity="1" fill-opacity="0" stroke="#05bf85" stroke-width="10" stroke-opacity="1"></use></g></g></g><g><g><use xlink:href="#a4AOnsQaT" opacity="1" fill="#ffffff" fill-opacity="0"></use><g><use xlink:href="#a4AOnsQaT" opacity="1" fill-opacity="0" stroke="#05bf85" stroke-width="10" stroke-opacity="1"></use></g></g><g><use xlink:href="#e3miRKTxlf" opacity="1" fill="#05bf85" fill-opacity="1"></use></g><g><use xlink:href="#a5cCSognh" opacity="1" fill="#05bf85" fill-opacity="1"></use></g><g><g><use xlink:href="#a1mtpnQdSZ" opacity="1" fill-opacity="0" stroke="#000000" stroke-width="1" stroke-opacity="1"></use></g></g><g><use xlink:href="#b17WN9DSjy" opacity="1" fill="#05bf85" fill-opacity="1"></use><g><use xlink:href="#b17WN9DSjy" opacity="1" fill-opacity="0" stroke="#05bf85" stroke-width="10" stroke-opacity="1"></use></g></g></g></g></g></svg>